<svg xmlns="http://www.w3.org/2000/svg">
  <symbol id="heimdall" viewBox="0 0 24 24">
    <circle cx="12" cy="12" r="11" fill="white"/>
    <g fill="none" stroke="black" stroke-width="1.5" stroke-linecap="round" stroke-linejoin="round">
      <path d="M5.5 15 L8.5 6 L12 10 L15.5 6 L18.5 15"/>
      <path d="M8.8 13.8 L12 17 L15.2 13.8"/>
    </g>
  </symbol>
  <symbol id="file" viewBox="0 0 16 16">
    <path d="M2 1.75C2 .784 2.784 0 3.75 0h6.586c.464 0 .909.184 1.237.513l2.914 2.914c.329.328.513.773.513 1.237v9.586A1.75 1.75 0 0 1 13.25 16h-9.5A1.75 1.75 0 0 1 2 14.25Zm1.75-.25a.25.25 0 0 0-.25.25v12.5c0 .138.112.25.25.25h9.5a.25.25 0 0 0 .25-.25V6h-2.75A1.75 1.75 0 0 1 9 4.25V1.5Zm6.75.062V4.25c0 .138.112.25.25.25h2.688l-.011-.013-2.914-2.914-.013-.011Z"></path>
  </symbol>

  <symbol id="file-directory" viewBox="0 0 16 16">
    <path d="M1.75 1A1.75 1.75 0 0 0 0 2.75v10.5C0 14.216.784 15 1.75 15h12.5A1.75 1.75 0 0 0 16 13.25v-8.5A1.75 1.75 0 0 0 14.25 3H7.5a.25.25 0 0 1-.2-.1l-.9-1.2C6.07 1.26 5.55 1 5 1H1.75Z"></path>
  </symbol>


  <symbol id="subissues-problems-completed" viewBox="0 0 16 16">
    <path fill-rule="evenodd" clip-rule="evenodd" d="M10.0206 11.1074C9.68518 11.3949 9.18014 11.3561 8.8926 11.0206L5.8926 7.52061C5.62055 7.20322 5.63873 6.72989 5.93432 6.4343L7.43432 4.9343C7.74674 4.62188 8.25327 4.62188 8.56569 4.9343C8.87811 5.24672 8.87811 5.75325 8.56569 6.06567L7.58953 7.04182L10.1074 9.97935C10.3949 10.3148 10.3561 10.8198 10.0206 11.1074Z" fill="var(--bgColor-done-emphasis, var(--color-done-emphasis, #8957e5))"></path>
    <circle stroke="var(--bgColor-done-emphasis, var(--color-done-emphasis, #8957e5))" stroke-width="2" fill="transparent" cx="8" cy="8" r="6"></circle>
  </symbol>

  <symbol id="issue-opened" viewBox="0 0 16 16">
    <path d="M8 9.5a1.5 1.5 0 1 0 0-3 1.5 1.5 0 0 0 0 3Z"></path>
    <path d="M8 0a8 8 0 1 1 0 16A8 8 0 0 1 8 0ZM1.5 8a6.5 6.5 0 1 0 13 0 6.5 6.5 0 0 0-13 0Z"></path>
  </symbol>

  <symbol id="check-circle" viewBox="0 0 16 16">
    <path d="M0 8a8 8 0 1 1 16 0A8 8 0 0 1 0 8Zm1.5 0a6.5 6.5 0 1 0 13 0 6.5 6.5 0 0 0-13 0Zm10.28-1.72-4.5 4.5a.75.75 0 0 1-1.06 0l-2-2a.751.751 0 0 1 .018-1.042.751.751 0 0 1 1.042-.018l1.47 1.47 3.97-3.97a.751.751 0 0 1 1.042.018.751.751 0 0 1 .018 1.042Z"></path>
  </symbol>

  <symbol id="check-circle-fill" viewBox="0 0 16 16">
    <path d="M8 16A8 8 0 1 1 8 0a8 8 0 0 1 0 16Zm3.78-9.72a.751.751 0 0 0-.018-1.042.751.751 0 0 0-1.042-.018L6.75 9.19 5.28 7.72a.751.751 0 0 0-1.042.018.751.751 0 0 0-.018 1.042l2 2a.75.75 0 0 0 1.06 0Z"></path>
  </symbol>

  <symbol id="skip" viewBox="0 0 16 16">
    <path d="M8 0a8 8 0 1 1 0 16A8 8 0 0 1 8 0ZM1.5 8a6.5 6.5 0 1 0 13 0 6.5 6.5 0 0 0-13 0Zm9.78-2.22-5.5 5.5a.749.749 0 0 1-1.275-.326.749.749 0 0 1 .215-.734l5.5-5.5a.751.751 0 0 1 1.042.018.751.751 0 0 1 .018 1.042Z"></path>
  </symbol>


  <symbol id="blocked" viewBox="0 0 16 16">
    <path d="M4.467.22a.749.749 0 0 1 .53-.22h6.006c.199 0 .389.079.53.22l4.247 4.247c.141.14.22.331.22.53v6.006a.749.749 0 0 1-.22.53l-4.247 4.247a.749.749 0 0 1-.53.22H4.997a.749.749 0 0 1-.53-.22L.22 11.533a.749.749 0 0 1-.22-.53V4.997c0-.199.079-.389.22-.53Zm.84 1.28L1.5 5.308v5.384L5.308 14.5h5.384l3.808-3.808V5.308L10.692 1.5ZM4 7.75A.75.75 0 0 1 4.75 7h6.5a.75.75 0 0 1 0 1.5h-6.5A.75.75 0 0 1 4 7.75Z"></path>
  </symbol>

  <symbol id="slash" viewBox="0 0 16 16">
    <path d="M11.28 4.72a.75.75 0 0 1 0 1.06l-5.5 5.5a.749.749 0 0 1-1.275-.326.749.749 0 0 1 .215-.734l5.5-5.5a.751.751 0 0 1 1.042.018.751.751 0 0 1 .018 1.042Z"></path>
  </symbol>

  <symbol id="dot-fill-pending" viewBox="0 0 16 16">
    <path d="M8 4a4 4 0 1 1 0 8 4 4 0 0 1 0-8Z"></path>
  </symbol>


  <symbol id="copy" viewBox="0 0 16 16">
    <path d="M0 6.75C0 5.784.784 5 1.75 5h1.5a.75.75 0 0 1 0 1.5h-1.5a.25.25 0 0 0-.25.25v7.5c0 .138.112.25.25.25h7.5a.25.25 0 0 0 .25-.25v-1.5a.75.75 0 0 1 1.5 0v1.5A1.75 1.75 0 0 1 9.25 16h-7.5A1.75 1.75 0 0 1 0 14.25Z"></path>
    <path d="M5 1.75C5 .784 5.784 0 6.75 0h7.5C15.216 0 16 .784 16 1.75v7.5A1.75 1.75 0 0 1 14.25 11h-7.5A1.75 1.75 0 0 1 5 9.25Zm1.75-.25a.25.25 0 0 0-.25.25v7.5c0 .138.112.25.25.25h7.5a.25.25 0 0 0 .25-.25v-7.5a.25.25 0 0 0-.25-.25Z"></path>
  </symbol>

  <symbol id="alert" viewBox="0 0 16 16">
    <path d="M6.457 1.047c.659-1.234 2.427-1.234 3.086 0l6.082 11.378A1.75 1.75 0 0 1 14.082 15H1.918a1.75 1.75 0 0 1-1.543-2.575Zm1.763.707a.25.25 0 0 0-.44 0L1.698 13.132a.25.25 0 0 0 .22.368h12.164a.25.25 0 0 0 .22-.368Zm.53 3.996v2.5a.75.75 0 0 1-1.5 0v-2.5a.75.75 0 0 1 1.5 0ZM9 11a1 1 0 1 1-2 0 1 1 0 0 1 2 0Z"></path>
  </symbol>
  <symbol id="stop-alert" viewBox="0 0 16 16">
    <path d="M4.47.22A.749.749 0 0 1 5 0h6c.199 0 .389.079.53.22l4.25 4.25c.141.14.22.331.22.53v6a.749.749 0 0 1-.22.53l-4.25 4.25A.749.749 0 0 1 11 16H5a.749.749 0 0 1-.53-.22L.22 11.53A.749.749 0 0 1 0 11V5c0-.199.079-.389.22-.53Zm.84 1.28L1.5 5.31v5.38l3.81 3.81h5.38l3.81-3.81V5.31L10.69 1.5ZM8 4a.75.75 0 0 1 .75.75v3.5a.75.75 0 0 1-1.5 0v-3.5A.75.75 0 0 1 8 4Zm0 8a1 1 0 1 1 0-2 1 1 0 0 1 0 2Z"></path>
  </symbol>
  
  <symbol id="issue-reopened" viewBox="0 0 16 16">
    <path d="M5.029 2.217a6.5 6.5 0 0 1 9.437 5.11.75.75 0 1 0 1.492-.154 8 8 0 0 0-14.315-4.03L.427 1.927A.25.25 0 0 0 0 2.104V5.75A.25.25 0 0 0 .25 6h3.646a.25.25 0 0 0 .177-.427L2.715 4.215a6.491 6.491 0 0 1 2.314-1.998ZM1.262 8.169a.75.75 0 0 0-1.22.658 8.001 8.001 0 0 0 14.315 4.03l1.216 1.216a.25.25 0 0 0 .427-.177V10.25a.25.25 0 0 0-.25-.25h-3.646a.25.25 0 0 0-.177.427l1.358 1.358a6.501 6.501 0 0 1-11.751-3.11.75.75 0 0 0-.272-.506Z"></path>
    <path d="M9.06 9.06a1.5 1.5 0 1 1-2.12-2.12 1.5 1.5 0 0 1 2.12 2.12Z"></path>
  </symbol>

  <symbol id="issue-tracks" viewBox="0 0 16 16">
    <path d="M1.5 8a6.5 6.5 0 0 1 13 0A.75.75 0 0 0 16 8a8 8 0 1 0-8 8 .75.75 0 0 0 0-1.5A6.5 6.5 0 0 1 1.5 8Z"></path>
    <path d="M8 9.5a1.5 1.5 0 1 0 0-3 1.5 1.5 0 0 0 0 3Zm1.5 1.75a.75.75 0 0 1 .75-.75h5a.75.75 0 0 1 0 1.5h-5a.75.75 0 0 1-.75-.75Zm2.75 2.25a.75.75 0 0 0 0 1.5h3a.75.75 0 0 0 0-1.5h-3Z"></path>
  </symbol>

  <symbol id="history" viewBox="0 0 16 16">
    <path d="m.427 1.927 1.215 1.215a8.002 8.002 0 1 1-1.6 5.685.75.75 0 1 1 1.493-.154 6.5 6.5 0 1 0 1.18-4.458l1.358 1.358A.25.25 0 0 1 3.896 6H.25A.25.25 0 0 1 0 5.75V2.104a.25.25 0 0 1 .427-.177ZM7.75 4a.75.75 0 0 1 .75.75v2.992l2.028.812a.75.75 0 0 1-.557 1.392l-2.5-1A.751.751 0 0 1 7 8.25v-3.5A.75.75 0 0 1 7.75 4Z"></path>
  </symbol>

  <symbol id="git-branch" viewBox="0 0 16 16">
    <path d="M9.5 3.25a2.25 2.25 0 1 1 3 2.122V6A2.5 2.5 0 0 1 10 8.5H6a1 1 0 0 0-1 1v1.128a2.251 2.251 0 1 1-1.5 0V5.372a2.25 2.25 0 1 1 1.5 0v1.836A2.493 2.493 0 0 1 6 7h4a1 1 0 0 0 1-1v-.628A2.25 2.25 0 0 1 9.5 3.25Zm-6 0a.75.75 0 1 0 1.5 0 .75.75 0 0 0-1.5 0Zm8.25-.75a.75.75 0 1 0 0 1.5.75.75 0 0 0 0-1.5ZM4.25 12a.75.75 0 1 0 0 1.5.75.75 0 0 0 0-1.5Z"></path>
  </symbol>

  <symbol id="git-pull-request" viewBox="0 0 16 16">
    <path d="M1.5 3.25a2.25 2.25 0 1 1 3 2.122v5.256a2.251 2.251 0 1 1-1.5 0V5.372A2.25 2.25 0 0 1 1.5 3.25Zm5.677-.177L9.573.677A.25.25 0 0 1 10 .854V2.5h1A2.5 2.5 0 0 1 13.5 5v5.628a2.251 2.251 0 1 1-1.5 0V5a1 1 0 0 0-1-1h-1v1.646a.25.25 0 0 1-.427.177L7.177 3.427a.25.25 0 0 1 0-.354ZM3.75 2.5a.75.75 0 1 0 0 1.5.75.75 0 0 0 0-1.5Zm0 9.5a.75.75 0 1 0 0 1.5.75.75 0 0 0 0-1.5Zm8.25.75a.75.75 0 1 0 1.5 0 .75.75 0 0 0-1.5 0Z"></path>
  </symbol>

  <symbol id="comment-discussion" viewBox="0 0 16 16">
    <path d="M1.75 1h8.5c.966 0 1.75.784 1.75 1.75v5.5A1.75 1.75 0 0 1 10.25 10H7.061l-2.574 2.573A1.458 1.458 0 0 1 2 11.543V10h-.25A1.75 1.75 0 0 1 0 8.25v-5.5C0 1.784.784 1 1.75 1ZM1.5 2.75v5.5c0 .138.112.25.25.25h1a.75.75 0 0 1 .75.75v2.19l2.72-2.72a.749.749 0 0 1 .53-.22h3.5a.25.25 0 0 0 .25-.25v-5.5a.25.25 0 0 0-.25-.25h-8.5a.25.25 0 0 0-.25.25Zm13 2a.25.25 0 0 0-.25-.25h-.5a.75.75 0 0 1 0-1.5h.5c.966 0 1.75.784 1.75 1.75v5.5A1.75 1.75 0 0 1 14.25 12H14v1.543a1.458 1.458 0 0 1-2.487 1.03L9.22 12.28a.749.749 0 0 1 .326-1.275.749.749 0 0 1 .734.215l2.22 2.22v-2.19a.75.75 0 0 1 .75-.75h1a.25.25 0 0 0 .25-.25Z"></path>
  </symbol>

  <symbol id="comment" viewBox="0 0 16 16">
    <path d="M1.75 2A1.75 1.75 0 0 0 0 3.75v6.5C0 11.216.784 12 1.75 12H4.5l2.354 2.354a.75.75 0 0 0 1.28-.53V12h6.116A1.75 1.75 0 0 0 16 10.25v-6.5A1.75 1.75 0 0 0 14.25 2H1.75Z"></path>
  </symbol>

  <symbol id="play" viewBox="0 0 16 16">
    <path d="M8 0a8 8 0 1 1 0 16A8 8 0 0 1 8 0ZM1.5 8a6.5 6.5 0 1 0 13 0 6.5 6.5 0 0 0-13 0Zm4.879-2.773 4.264 2.559a.25.25 0 0 1 0 .428l-4.264 2.559A.25.25 0 0 1 6 10.559V5.442a.25.25 0 0 1 .379-.215Z"></path>
  </symbol>

  <symbol id="pulse" viewBox="0 0 16 16">
    <path d="M6 2c.306 0 .582.187.696.471L10 10.731l1.304-3.26A.751.751 0 0 1 12 7h3.25a.75.75 0 0 1 0 1.5h-2.742l-1.812 4.528a.751.751 0 0 1-1.392 0L6 4.77 4.696 8.03A.75.75 0 0 1 4 8.5H.75a.75.75 0 0 1 0-1.5h2.742l1.812-4.529A.751.751 0 0 1 6 2Z"></path>
  </symbol>

  <symbol id="fire" viewBox="0 0 16 16">
      <path d="M9.533.753V.752c.217 2.385 1.463 3.626 2.653 4.81C13.37 6.74 14.498 7.863 14.498 10c0 3.5-3 6-6.5 6S1.5 13.512 1.5 10c0-1.298.536-2.56 1.425-3.286.376-.308.862 0 1.035.454C4.46 8.487 5.581 8.419 6 8c.282-.282.341-.811-.003-1.5C4.34 3.187 7.035.75 8.77.146c.39-.137.726.194.763.607ZM7.998 14.5c2.832 0 5-1.98 5-4.5 0-1.463-.68-2.19-1.879-3.383l-.036-.037c-1.013-1.008-2.3-2.29-2.834-4.434-.322.256-.63.579-.864.953-.432.696-.621 1.58-.046 2.73.473.947.67 2.284-.278 3.232-.61.61-1.545.84-2.403.633a2.79 2.79 0 0 1-1.436-.874A3.198 3.198 0 0 0 3 10c0 2.53 2.164 4.5 4.998 4.5Z"></path>
  </symbol>
  
  <symbol id="accessibility" viewBox="0 0 16 16">
    <path d="M2 5.5a3.5 3.5 0 1 1 5.898 2.549 5.508 5.508 0 0 1 3.034 4.084.75.75 0 1 1-1.482.235 4 4 0 0 0-7.9 0 .75.75 0 0 1-1.482-.236A5.507 5.507 0 0 1 3.102 8.05 3.493 3.493 0 0 1 2 5.5ZM11 4a3.001 3.001 0 0 1 2.22 5.018 5.01 5.01 0 0 1 2.56 3.012.749.749 0 0 1-.885.954.752.752 0 0 1-.549-.514 3.507 3.507 0 0 0-2.522-2.372.75.75 0 0 1-.574-.73v-.352a.75.75 0 0 1 .416-.672A1.5 1.5 0 0 0 11 5.5.75.75 0 0 1 11 4Zm-5.5-.5a2 2 0 1 0-.001 3.999A2 2 0 0 0 5.5 3.5Z"></path>
  </symbol>
  
  <symbol id="thermometer" viewBox="0 0 16 16">
    <g fill="none" stroke="currentColor" stroke-width="1.5" stroke-linecap="round" stroke-linejoin="round">
      <path d="M8 2a1.75 1.75 0 0 0-1.75 1.75v5.83a3.25 3.25 0 1 0 3.5 0V3.75A1.75 1.75 0 0 0 8 2Z"></path>
      <path d="M8 6v4.35"></path>
      <path d="M11.75 4.5h1.5"></path>
      <path d="M11.75 7h1.5"></path>
      <path d="M11.75 9.5h1.5"></path>
      <path d="M11.75 12h1.5"></path>
    </g>
    <circle cx="8" cy="12.75" r="1.7"></circle>
  </symbol>

  <symbol id="speaker" viewBox="0 0 16 16">
    <g fill="none" stroke="currentColor" stroke-width="1.5" stroke-linecap="round" stroke-linejoin="round">
      <path d="M2.5 6.2h2.2l2.9-2.45v8.5L4.7 9.8H2.5Z"></path>
      <path d="M10.35 6.1a3.1 3.1 0 0 1 0 3.8"></path>
      <path d="M12.35 4.65a5.35 5.35 0 0 1 0 6.7"></path>
    </g>
  </symbol>
  <symbol id="organization" viewBox="0 0 16 16">
    <path d="M1.75 16A1.75 1.75 0 0 1 0 14.25V1.75C0 .784.784 0 1.75 0h8.5C11.216 0 12 .784 12 1.75v12.5c0 .085-.006.168-.018.25h2.268a.25.25 0 0 0 .25-.25V8.285a.25.25 0 0 0-.111-.208l-1.055-.703a.749.749 0 1 1 .832-1.248l1.055.703c.487.325.779.871.779 1.456v5.965A1.75 1.75 0 0 1 14.25 16h-3.5a.766.766 0 0 1-.197-.026c-.099.017-.2.026-.303.026h-3a.75.75 0 0 1-.75-.75V14h-1v1.25a.75.75 0 0 1-.75.75Zm-.25-1.75c0 .138.112.25.25.25H4v-1.25a.75.75 0 0 1 .75-.75h2.5a.75.75 0 0 1 .75.75v1.25h2.25a.25.25 0 0 0 .25-.25V1.75a.25.25 0 0 0-.25-.25h-8.5a.25.25 0 0 0-.25.25ZM3.75 6h.5a.75.75 0 0 1 0 1.5h-.5a.75.75 0 0 1 0-1.5ZM3 3.75A.75.75 0 0 1 3.75 3h.5a.75.75 0 0 1 0 1.5h-.5A.75.75 0 0 1 3 3.75Zm4 3A.75.75 0 0 1 7.75 6h.5a.75.75 0 0 1 0 1.5h-.5A.75.75 0 0 1 7 6.75ZM7.75 3h.5a.75.75 0 0 1 0 1.5h-.5A.75.75 0 0 1 7.75 3ZM3 9.75A.75.75 0 0 1 3.75 9h.5a.75.75 0 0 1 0 1.5h-.5A.75.75 0 0 1 3 9.75ZM7.75 9h.5a.75.75 0 0 1 0 1.5h-.5A.75.75 0 0 1 7.75 9Z"></path>
  </symbol>

  <symbol id="table" viewBox="0 0 16 16">
    <path d="M0 1.75C0 .784.784 0 1.75 0h12.5C15.216 0 16 .784 16 1.75v12.5A1.75 1.75 0 0 1 14.25 16H1.75A1.75 1.75 0 0 1 0 14.25ZM6.5 6.5v8h7.75a.25.25 0 0 0 .25-.25V6.5Zm8-1.5V1.75a.25.25 0 0 0-.25-.25H6.5V5Zm-13 1.5v7.75c0 .138.112.25.25.25H5v-8ZM5 5V1.5H1.75a.25.25 0 0 0-.25.25V5Z"></path>
  </symbol>

  <symbol id="table-check" viewBox="0 0 16 16">
    <path d="M14.25 0C15.2165 0 16 0.783502 16 1.75V8.24805C16 8.66226 15.6642 9 15.25 9C14.8358 9 14.5 8.66421 14.5 8.25V6.5H6.5V14.5H7.25C7.66421 14.5 8 14.8358 8 15.25C8 15.6642 7.66317 15.9999 7.24902 16H1.75C0.783501 16 0 15.2165 0 14.25V1.75C0 0.783501 0.783502 0 1.75 0H14.25ZM1.5 14.25C1.5 14.3881 1.61193 14.5 1.75 14.5H5V6.5H1.5V14.25ZM1.75 1.5C1.61193 1.5 1.5 1.61193 1.5 1.75V5H5V1.5H1.75ZM6.5 1.5V5H14.5V1.75C14.5 1.61193 14.3881 1.5 14.25 1.5H6.5Z"></path><path d="M15.9625 11.7368C15.9659 11.9311 15.8938 12.1191 15.7613 12.2613L12.2613 15.7613C12.1207 15.9017 11.93 15.9806 11.7313 15.9806C11.5325 15.9806 11.3419 15.9017 11.2013 15.7613L9.20129 13.7613C9.06881 13.6191 8.99669 13.4311 9.00012 13.2368C9.00355 13.0425 9.08226 12.8571 9.21967 12.7197C9.35708 12.5823 9.54247 12.5035 9.73677 12.5001C9.93107 12.4967 10.1191 12.5688 10.2613 12.7013L11.7313 14.1713L14.7013 11.2013C14.8435 11.0688 15.0315 10.9967 15.2258 11.0001C15.4201 11.0035 15.6055 11.0823 15.7429 11.2197C15.8803 11.3571 15.959 11.5425 15.9625 11.7368Z"></path>
  </symbol>
  
  <symbol id="book" viewBox="0 0 16 16">
    <path d="M0 1.75A.75.75 0 0 1 .75 1h4.253c1.227 0 2.317.59 3 1.501A3.743 3.743 0 0 1 11.006 1h4.245a.75.75 0 0 1 .75.75v10.5a.75.75 0 0 1-.75.75h-4.507a2.25 2.25 0 0 0-1.591.659l-.622.621a.75.75 0 0 1-1.06 0l-.622-.621A2.25 2.25 0 0 0 5.258 13H.75a.75.75 0 0 1-.75-.75Zm7.251 10.324.004-5.073-.002-2.253A2.25 2.25 0 0 0 5.003 2.5H1.5v9h3.757a3.75 3.75 0 0 1 1.994.574ZM8.755 4.75l-.004 7.322a3.752 3.752 0 0 1 1.992-.572H14.5v-9h-3.495a2.25 2.25 0 0 0-2.25 2.25Z"></path>
  </symbol>

  <symbol id="fire" viewBox="0 0 16 16">
    <path fill="currentColor" d="M8.06.75c.17 1.06.76 1.92 1.52 2.86.78.95 1.57 1.95 1.92 3.28.38-.28.71-.68.98-1.2.11-.21.4-.22.53-.02.55.83.85 1.84.85 2.96 0 1.78-.77 3.33-2.04 4.46C10.54 14.18 8.77 15 6.78 15c-1.78 0-3.31-.54-4.42-1.63C1.24 12.27.7 10.75.7 8.98c0-1.84.72-3.56 1.83-5.01 1.03-1.33 2.39-2.43 3.94-3.22.26-.13.57.03.59.3.07.95.34 1.84.83 2.8.05-.95.39-1.9 1.17-3 .2-.29.67-.17.72.2Zm.27 4.74c-.92 1.16-1.34 2.18-1.34 3.12 0 1.03.43 1.84 1.1 2.47.39.36.86.66 1.37.91.51-.44.92-.93 1.2-1.48.31-.62.47-1.28.47-2 0-.84-.31-1.54-.86-2.28-.42-.56-.96-1.14-1.5-1.87-.11.39-.26.76-.44 1.13Z"/>
  </symbol>

  <symbol id="graph" viewBox="0 0 16 16">
    <path d="M1.5 1.75V13.5h13.75a.75.75 0 0 1 0 1.5H.75a.75.75 0 0 1-.75-.75V1.75a.75.75 0 0 1 1.5 0Zm14.28 2.53-5.25 5.25a.75.75 0 0 1-1.06 0L7 7.06 4.28 9.78a.751.751 0 0 1-1.042-.018.751.751 0 0 1-.018-1.042l3.25-3.25a.75.75 0 0 1 1.06 0L10 7.94l4.72-4.72a.751.751 0 0 1 1.042.018.751.751 0 0 1 .018 1.042Z"></path>
  </symbol>

  <symbol id="gear" viewBox="0 0 16 16">
    <path d="M8 0a8.2 8.2 0 0 1 .701.031C9.444.095 9.99.645 10.16 1.29l.288 1.107c.018.066.079.158.212.224.231.114.454.243.668.386.123.082.233.09.299.071l1.103-.303c.644-.176 1.392.021 1.82.63.27.385.506.792.704 1.218.315.675.111 1.422-.364 1.891l-.814.806c-.049.048-.098.147-.088.294.016.257.016.515 0 .772-.01.147.038.246.088.294l.814.806c.475.469.679 1.216.364 1.891a7.977 7.977 0 0 1-.704 1.217c-.428.61-1.176.807-1.82.63l-1.102-.302c-.067-.019-.177-.011-.3.071a5.909 5.909 0 0 1-.668.386c-.133.066-.194.158-.211.224l-.29 1.106c-.168.646-.715 1.196-1.458 1.26a8.006 8.006 0 0 1-1.402 0c-.743-.064-1.289-.614-1.458-1.26l-.289-1.106c-.018-.066-.079-.158-.212-.224a5.738 5.738 0 0 1-.668-.386c-.123-.082-.233-.09-.299-.071l-1.103.303c-.644.176-1.392-.021-1.82-.63a8.12 8.12 0 0 1-.704-1.218c-.315-.675-.111-1.422.363-1.891l.815-.806c.05-.048.098-.147.088-.294a6.214 6.214 0 0 1 0-.772c.01-.147-.038-.246-.088-.294l-.815-.806C.635 6.045.431 5.298.746 4.623a7.92 7.92 0 0 1 .704-1.217c.428-.61 1.176-.807 1.82-.63l1.102.302c.067.019.177.011.3-.071.214-.143.437-.272.668-.386.133-.066.194-.158.211-.224l.29-1.106C6.009.645 6.556.095 7.299.03 7.53.01 7.764 0 8 0Zm-.571 1.525c-.036.003-.108.036-.137.146l-.289 1.105c-.147.561-.549.967-.998 1.189-.173.086-.34.183-.5.29-.417.278-.97.423-1.529.27l-1.103-.303c-.109-.03-.175.016-.195.045-.22.312-.412.644-.573.99-.014.031-.021.11.059.19l.815.806c.411.406.562.957.53 1.456a4.709 4.709 0 0 0 0 .582c.032.499-.119 1.05-.53 1.456l-.815.806c-.081.08-.073.159-.059.19.162.346.353.677.573.989.02.03.085.076.195.046l1.102-.303c.56-.153 1.113-.008 1.53.27.161.107.328.204.501.29.447.222.85.629.997 1.189l.289 1.105c.029.109.101.143.137.146a6.6 6.6 0 0 0 1.142 0c.036-.003.108-.036.137-.146l.289-1.105c.147-.561.549-.967.998-1.189.173-.086.34-.183.5-.29.417-.278.97-.423 1.529-.27l1.103.303c.109.029.175-.016.195-.045.22-.313.411-.644.573-.99.014-.031.021-.11-.059-.19l-.815-.806c-.411-.406-.562-.957-.53-1.456a4.709 4.709 0 0 0 0-.582c-.032-.499.119-1.05.53-1.456l.815-.806c.081-.08.073-.159.059-.19a6.464 6.464 0 0 0-.573-.989c-.02-.03-.085-.076-.195-.046l-1.102.303c-.56.153-1.113.008-1.53-.27a4.44 4.44 0 0 0-.501-.29c-.447-.222-.85-.629-.997-1.189l-.289-1.105c-.029-.11-.101-.143-.137-.146a6.6 6.6 0 0 0-1.142 0ZM11 8a3 3 0 1 1-6 0 3 3 0 0 1 6 0ZM9.5 8a1.5 1.5 0 1 0-3.001.001A1.5 1.5 0 0 0 9.5 8Z"></path>
  </symbol>

  <symbol id="three-bars" viewBox="0 0 16 16">
    <path d="M1 2.75A.75.75 0 0 1 1.75 2h12.5a.75.75 0 0 1 0 1.5H1.75A.75.75 0 0 1 1 2.75Zm0 5A.75.75 0 0 1 1.75 7h12.5a.75.75 0 0 1 0 1.5H1.75A.75.75 0 0 1 1 7.75ZM1.75 12h12.5a.75.75 0 0 1 0 1.5H1.75a.75.75 0 0 1 0-1.5Z"></path>
  </symbol>

  <symbol id="download" viewBox="0 0 16 16">
    <path d="M2.75 14A1.75 1.75 0 0 1 1 12.25v-2.5a.75.75 0 0 1 1.5 0v2.5c0 .138.112.25.25.25h10.5a.25.25 0 0 0 .25-.25v-2.5a.75.75 0 0 1 1.5 0v2.5A1.75 1.75 0 0 1 13.25 14Z"></path>
    <path d="M7.25 7.689V2a.75.75 0 0 1 1.5 0v5.689l1.97-1.969a.749.749 0 1 1 1.06 1.06l-3.25 3.25a.749.749 0 0 1-1.06 0L4.22 6.78a.749.749 0 1 1 1.06-1.06l1.97 1.969Z"></path>
  </symbol>

  <symbol id="plus" viewBox="0 0 16 16">
    <path d="M7.75 2a.75.75 0 0 1 .75.75V7h4.25a.75.75 0 0 1 0 1.5H8.5v4.25a.75.75 0 0 1-1.5 0V8.5H2.75a.75.75 0 0 1 0-1.5H7V2.75A.75.75 0 0 1 7.75 2Z"></path>
  </symbol>

  <symbol id="minus" viewBox="0 0 16 16">
    <path d="M2.75 7.25h10a.75.75 0 0 1 0 1.5h-10a.75.75 0 0 1 0-1.5Z"></path>
  </symbol>


  <symbol id="kebab-horizontal" viewBox="0 0 16 16">
    <path d="M8 9a1.5 1.5 0 1 0 0-3 1.5 1.5 0 0 0 0 3ZM1.5 9a1.5 1.5 0 1 0 0-3 1.5 1.5 0 0 0 0 3Zm13 0a1.5 1.5 0 1 0 0-3 1.5 1.5 0 0 0 0 3Z"></path>
  </symbol>

  <symbol id="x" viewBox="0 0 16 16">
    <path d="M3.72 3.72a.75.75 0 0 1 1.06 0L8 6.94l3.22-3.22a.75.75 0 1 1 1.06 1.06L9.06 8l3.22 3.22a.75.75 0 1 1-1.06 1.06L8 9.06l-3.22 3.22a.75.75 0 0 1-1.06-1.06L6.94 8 3.72 4.78a.75.75 0 0 1 0-1.06Z"></path>
  </symbol>

  <symbol id="sync" viewBox="0 0 16 16">
    <path d="M1.705 8a6.3 6.3 0 0 0 10.766 4.461.75.75 0 0 1 1.06 1.06A7.8 7.8 0 0 1 .205 8 7.75 7.75 0 0 1 8 0c2.023 0 3.955.8 5.402 2.23V.75a.75.75 0 0 1 1.5 0V4.5a.75.75 0 0 1-.75.75H10.4a.75.75 0 0 1 0-1.5h2.123A6.254 6.254 0 0 0 8 1.5 6.25 6.25 0 0 0 1.705 8Zm13.59 0A7.75 7.75 0 0 1 8 16a7.77 7.77 0 0 1-5.402-2.23v1.48a.75.75 0 0 1-1.5 0V11.5a.75.75 0 0 1 .75-.75H5.6a.75.75 0 0 1 0 1.5H3.477A6.254 6.254 0 0 0 8 14.5 6.25 6.25 0 0 0 14.295 8a.75.75 0 0 1 1.5 0Z"></path>
  </symbol>

  <symbol id="search" viewBox="0 0 16 16">
    <path d="M10.68 11.74a6 6 0 0 1-7.922-8.982 6 6 0 0 1 8.982 7.922l3.04 3.04a.749.749 0 0 1-.326 1.275.749.749 0 0 1-.734-.215ZM11.5 7a4.499 4.499 0 1 0-8.997 0A4.499 4.499 0 0 0 11.5 7Z"></path>
  </symbol>

  <symbol id="git-commit" viewBox="0 0 16 16">
    <path d="M11.93 8.5a4.002 4.002 0 0 1-7.86 0H.75a.75.75 0 0 1 0-1.5h3.32a4.002 4.002 0 0 1 7.86 0h3.32a.75.75 0 0 1 0 1.5Zm-1.43-.75a2.5 2.5 0 1 0-5 0 2.5 2.5 0 0 0 5 0Z"></path>
  </symbol>

  <symbol id="people" viewBox="0 0 16 16">
    <path d="M2 5.5a3.5 3.5 0 1 1 5.898 2.549 5.508 5.508 0 0 1 3.034 4.084.75.75 0 1 1-1.482.235 4 4 0 0 0-7.9 0 .75.75 0 0 1-1.482-.236A5.507 5.507 0 0 1 3.102 8.05 3.493 3.493 0 0 1 2 5.5ZM11 4a3.001 3.001 0 0 1 2.22 5.018 5.01 5.01 0 0 1 2.56 3.012.749.749 0 0 1-.885.954.752.752 0 0 1-.549-.514 3.507 3.507 0 0 0-2.522-2.372.75.75 0 0 1-.574-.73v-.352a.75.75 0 0 1 .416-.672A1.5 1.5 0 0 0 11 5.5.75.75 0 0 1 11 4Zm-5.5-.5a2 2 0 1 0-.001 3.999A2 2 0 0 0 5.5 3.5Z"></path>
  </symbol>

  <symbol id="pin" viewBox="0 0 16 16">
    <path d="M7.75 0a4.75 4.75 0 0 1 4.75 4.75c0 3.124-3.266 6.717-4.148 7.63a.5.5 0 0 1-.704 0C6.766 11.467 3.5 7.874 3.5 4.75A4.25 4.25 0 0 1 7.75 0Zm0 6.5a1.75 1.75 0 1 0 0-3.5 1.75 1.75 0 0 0 0 3.5Z"></path>
    <path d="M7.75 15.5a.75.75 0 0 1-.75-.75v-1.3a.75.75 0 0 1 1.5 0v1.3a.75.75 0 0 1-.75.75Z"></path>
  </symbol>

  <symbol id="checklist" viewBox="0 0 16 16">
    <path d="M3.75 2a.75.75 0 0 1 .75.75V3h7.75a.75.75 0 0 1 0 1.5H4.5v.25a.75.75 0 0 1-1.5 0v-2A.75.75 0 0 1 3.75 2Zm0 4.5a.75.75 0 0 1 .75.75v.25h7.75a.75.75 0 0 1 0 1.5H4.5v.25a.75.75 0 0 1-1.5 0v-2a.75.75 0 0 1 .75-.75Zm0 4.5a.75.75 0 0 1 .75.75V12h7.75a.75.75 0 0 1 0 1.5H4.5v.25a.75.75 0 0 1-1.5 0v-2a.75.75 0 0 1 .75-.75Z"></path>
  </symbol>


  <symbol id="ai-model" viewBox="0 0 16 16">
    <path d="M10.628 7.25a2.25 2.25 0 1 1 0 1.5H8.622a2.25 2.25 0 0 1-2.513 1.466L5.03 12.124a2.25 2.25 0 1 1-1.262-.814l1.035-1.832A2.245 2.245 0 0 1 4.25 8c0-.566.209-1.082.553-1.478L3.768 4.69a2.25 2.25 0 1 1 1.262-.814l1.079 1.908A2.25 2.25 0 0 1 8.622 7.25ZM2.5 2.5a.75.75 0 1 0 1.5 0 .75.75 0 0 0-1.5 0Zm4 4.75a.75.75 0 1 0 0 1.5.75.75 0 0 0 0-1.5Zm6.25 0a.75.75 0 1 0 0 1.5.75.75 0 0 0 0-1.5Zm-9.5 5.5a.75.75 0 1 0 0 1.5.75.75 0 0 0 0-1.5Z"></path>
  </symbol>
  <symbol id="avatar-human" viewBox="0 0 24 24">
    <path d="M12 12a5 5 0 1 0-5-5 5 5 0 0 0 5 5Zm0 2c-5.06 0-9 2.39-9 5.25V22h18v-2.75C21 16.39 17.06 14 12 14Z"></path>
  </symbol>

  <symbol id="arrow-up" viewBox="0 0 16 16">
    <path d="M8.53 1.22a.75.75 0 0 0-1.06 0L3.22 5.47a.75.75 0 0 0 1.06 1.06L7.25 3.56V14a.75.75 0 0 0 1.5 0V3.56l2.97 2.97a.75.75 0 1 0 1.06-1.06L8.53 1.22Z"></path>
  </symbol>
  <symbol id="sort-asc" viewBox="0 0 16 16">
    <path d="m12.927 2.573 3 3A.25.25 0 0 1 15.75 6H13.5v6.75a.75.75 0 0 1-1.5 0V6H9.75a.25.25 0 0 1-.177-.427l3-3a.25.25 0 0 1 .354 0ZM0 12.25a.75.75 0 0 1 .75-.75h7.5a.75.75 0 0 1 0 1.5H.75a.75.75 0 0 1-.75-.75Zm0-4a.75.75 0 0 1 .75-.75h4.5a.75.75 0 0 1 0 1.5H.75A.75.75 0 0 1 0 8.25Zm0-4a.75.75 0 0 1 .75-.75h2.5a.75.75 0 0 1 0 1.5H.75A.75.75 0 0 1 0 4.25Z"></path>
  </symbol>


  <symbol id="chevron-down" viewBox="0 0 16 16">
    <path d="M4 6l4 4 4-4" fill="none" stroke="currentColor" stroke-width="1.5" stroke-linecap="round" stroke-linejoin="round"></path>
  </symbol>
  <symbol id="chevron-right" viewBox="0 0 12 12">
    <path d="M4.7 10c-.2 0-.4-.1-.5-.2-.3-.3-.3-.8 0-1.1L6.9 6 4.2 3.3c-.3-.3-.3-.8 0-1.1.3-.3.8-.3 1.1 0l3.3 3.2c.3.3.3.8 0 1.1L5.3 9.7c-.2.2-.4.3-.6.3Z"></path>
  </symbol>

  <symbol id="chevron-up" viewBox="0 0 16 16">
    <path d="M3.22 10.53a.749.749 0 0 1 0-1.06l4.25-4.25a.749.749 0 0 1 1.06 0l4.25 4.25a.749.749 0 1 1-1.06 1.06L8 6.811 4.28 10.53a.749.749 0 0 1-1.06 0Z"></path>
  </symbol>
  
    <symbol id="pencil" viewBox="0 0 16 16">
    <path d="M11.013 1.427a1.75 1.75 0 0 1 2.474 0l1.086 1.086a1.75 1.75 0 0 1 0 2.474l-8.61 8.61c-.21.21-.47.364-.756.445l-3.251.93a.75.75 0 0 1-.927-.928l.929-3.25c.081-.286.235-.547.445-.758l8.61-8.61Zm.176 4.823L9.75 4.81l-6.286 6.287a.253.253 0 0 0-.064.108l-.558 1.953 1.953-.558a.253.253 0 0 0 .108-.064Zm1.238-3.763a.25.25 0 0 0-.354 0L10.811 3.75l1.439 1.44 1.263-1.263a.25.25 0 0 0 0-.354Z"></path>
  </symbol>

  <symbol id="check" viewBox="0 0 16 16">
    <path d="M13.78 3.97a.75.75 0 0 1 0 1.06L6.81 12 2.22 7.41a.75.75 0 1 1 1.06-1.06l3.53 3.53 5.91-5.91a.75.75 0 0 1 1.06 0Z"></path>
  </symbol>

    <symbol id="discussion-closed" viewBox="0 0 16 16">
    <path d="M0 2.75C0 1.783.784 1 1.75 1h8.5c.967 0 1.75.783 1.75 1.75v5.5A1.75 1.75 0 0 1 10.25 10H7.061l-2.574 2.573A1.457 1.457 0 0 1 2 11.543V10h-.25A1.75 1.75 0 0 1 0 8.25Zm1.75-.25a.25.25 0 0 0-.25.25v5.5c0 .138.112.25.25.25h1a.75.75 0 0 1 .75.75v2.189L6.22 8.72a.747.747 0 0 1 .53-.22h3.5a.25.25 0 0 0 .25-.25v-5.5a.25.25 0 0 0-.25-.25Zm12.5 2h-.5a.75.75 0 0 1 0-1.5h.5c.967 0 1.75.783 1.75 1.75v5.5A1.75 1.75 0 0 1 14.25 12H14v1.543a1.457 1.457 0 0 1-2.487 1.03L9.22 12.28a.749.749 0 1 1 1.06-1.06l2.22 2.219V11.25a.75.75 0 0 1 .75-.75h1a.25.25 0 0 0 .25-.25v-5.5a.25.25 0 0 0-.25-.25Zm-5.47.28-3 3a.747.747 0 0 1-1.06 0l-1.5-1.5a.749.749 0 1 1 1.06-1.06l.97.969L7.72 3.72a.749.749 0 1 1 1.06 1.06Z"></path>
  </symbol>

  <symbol id="discussion-outdated" viewBox="0 0 16 16">
    <path d="M0 2.75C0 1.783.784 1 1.75 1h8.5c.967 0 1.75.783 1.75 1.75v5.5A1.75 1.75 0 0 1 10.25 10H7.061l-2.574 2.573A1.457 1.457 0 0 1 2 11.543V10h-.25A1.75 1.75 0 0 1 0 8.25Zm1.75-.25a.25.25 0 0 0-.25.25v5.5c0 .138.112.25.25.25h1a.75.75 0 0 1 .75.75v2.189L6.22 8.72a.747.747 0 0 1 .53-.22h3.5a.25.25 0 0 0 .25-.25v-5.5a.25.25 0 0 0-.25-.25Zm12.5 2h-.5a.75.75 0 0 1 0-1.5h.5c.967 0 1.75.783 1.75 1.75v5.5A1.75 1.75 0 0 1 14.25 12H14v1.543a1.457 1.457 0 0 1-2.487 1.03L9.22 12.28a.749.749 0 1 1 1.06-1.06l2.22 2.219V11.25a.75.75 0 0 1 .75-.75h1a.25.25 0 0 0 .25-.25v-5.5a.25.25 0 0 0-.25-.25ZM6.5 4v1.492l.466.187.036.015.812.375a.75.75 0 1 1-.628 1.362l-.795-.367-.92-.368A.75.75 0 0 1 5 6V4a.75.75 0 0 1 1.5 0Z"></path>
  </symbol>

  <symbol id="discussion-duplicate" viewBox="0 0 16 16">
    <path d="M0 2.75C0 1.783.784 1 1.75 1h8.5c.967 0 1.75.783 1.75 1.75v5.5A1.75 1.75 0 0 1 10.25 10H7.061l-2.574 2.573A1.457 1.457 0 0 1 2 11.543V10h-.25A1.75 1.75 0 0 1 0 8.25Zm1.75-.25a.25.25 0 0 0-.25.25v5.5c0 .138.112.25.25.25h1a.75.75 0 0 1 .75.75v2.189L6.22 8.72a.747.747 0 0 1 .53-.22h3.5a.25.25 0 0 0 .25-.25v-5.5a.25.25 0 0 0-.25-.25Zm12.5 2h-.5a.75.75 0 0 1 0-1.5h.5c.967 0 1.75.783 1.75 1.75v5.5A1.75 1.75 0 0 1 14.25 12H14v1.543a1.457 1.457 0 0 1-2.487 1.03L9.22 12.28a.749.749 0 1 1 1.06-1.06l2.22 2.219V11.25a.75.75 0 0 1 .75-.75h1a.25.25 0 0 0 .25-.25v-5.5a.25.25 0 0 0-.25-.25Zm-6.282.03L5.03 7.468a.749.749 0 1 1-1.06-1.061L6.907 3.47a.75.75 0 0 1 1.061 1.06Z"></path>
  </symbol>

  
  <symbol id="paintbrush" viewBox="0 0 16 16">
    <path d="M11.134 1.535c.7-.509 1.416-.942 2.076-1.155.649-.21 1.463-.267 2.069.34.603.601.568 1.411.368 2.07-.202.668-.624 1.39-1.125 2.096-1.011 1.424-2.496 2.987-3.775 4.249-1.098 1.084-2.132 1.839-3.04 2.3a3.744 3.744 0 0 1-1.055 3.217c-.431.431-1.065.691-1.657.861-.614.177-1.294.287-1.914.357A21.151 21.151 0 0 1 .797 16H.743l.007-.75H.749L.742 16a.75.75 0 0 1-.743-.742l.743-.008-.742.007v-.054a21.25 21.25 0 0 1 .13-2.284c.067-.647.187-1.287.358-1.914.17-.591.43-1.226.86-1.657a3.746 3.746 0 0 1 3.227-1.054c.466-.893 1.225-1.907 2.314-2.982 1.271-1.255 2.833-2.75 4.245-3.777ZM1.62 13.089c-.051.464-.086.929-.104 1.395.466-.018.932-.053 1.396-.104a10.511 10.511 0 0 0 1.668-.309c.526-.151.856-.325 1.011-.48a2.25 2.25 0 1 0-3.182-3.182c-.155.155-.329.485-.48 1.01a10.515 10.515 0 0 0-.309 1.67Zm10.396-10.34c-1.224.89-2.605 2.189-3.822 3.384l1.718 1.718c1.21-1.205 2.51-2.597 3.387-3.833.47-.662.78-1.227.912-1.662.134-.444.032-.551.009-.575h-.001V1.78c-.014-.014-.113-.113-.548.027-.432.14-.995.462-1.655.942Zm-4.832 7.266-.001.001a9.859 9.859 0 0 0 1.63-1.142L7.155 7.216a9.7 9.7 0 0 0-1.161 1.607c.482.302.889.71 1.19 1.192Z"></path>
  </symbol>

  <symbol id="bell" viewBox="0 0 16 16">
    <path d="M8 16a2 2 0 0 0 1.985-1.75c.017-.137-.097-.25-.235-.25h-3.5c-.138 0-.252.113-.235.25A2 2 0 0 0 8 16ZM3 5a5 5 0 0 1 10 0v2.947c0 .05.015.098.042.139l1.703 2.555A1.519 1.519 0 0 1 13.482 13H2.518a1.516 1.516 0 0 1-1.263-2.36l1.703-2.554A.255.255 0 0 0 3 7.947Zm5-3.5A3.5 3.5 0 0 0 4.5 5v2.947c0 .346-.102.683-.294.97l-1.703 2.556a.017.017 0 0 0-.003.01l.001.006c0 .002.002.004.004.006l.006.004.007.001h10.964l.007-.001.006-.004.004-.006.001-.007a.017.017 0 0 0-.003-.01l-1.703-2.554a1.745 1.745 0 0 1-.294-.97V5A3.5 3.5 0 0 0 8 1.5Z"></path>
  </symbol>

  <symbol id="credit-card" viewBox="0 0 16 16">
    <path d="M10.75 9a.75.75 0 0 0 0 1.5h1.5a.75.75 0 0 0 0-1.5h-1.5Z"></path><path d="M0 3.75C0 2.784.784 2 1.75 2h12.5c.966 0 1.75.784 1.75 1.75v8.5A1.75 1.75 0 0 1 14.25 14H1.75A1.75 1.75 0 0 1 0 12.25ZM14.5 6.5h-13v5.75c0 .138.112.25.25.25h12.5a.25.25 0 0 0 .25-.25Zm0-2.75a.25.25 0 0 0-.25-.25H1.75a.25.25 0 0 0-.25.25V5h13Z"></path>
  </symbol>

  <symbol id="mail-16" viewBox="0 0 16 16">
    <path d="M1.75 2h12.5c.966 0 1.75.784 1.75 1.75v8.5A1.75 1.75 0 0 1 14.25 14H1.75A1.75 1.75 0 0 1 0 12.25v-8.5C0 2.784.784 2 1.75 2ZM1.5 12.251c0 .138.112.25.25.25h12.5a.25.25 0 0 0 .25-.25V5.809L8.38 9.397a.75.75 0 0 1-.76 0L1.5 5.809v6.442Zm13-8.181v-.32a.25.25 0 0 0-.25-.25H1.75a.25.25 0 0 0-.25.25v.32L8 7.88Z"></path>
  </symbol>

  <symbol id="shield-lock" viewBox="0 0 16 16">
    <path d="m8.533.133 5.25 1.68A1.75 1.75 0 0 1 15 3.48V7c0 1.566-.32 3.182-1.303 4.682-.983 1.498-2.585 2.813-5.032 3.855a1.697 1.697 0 0 1-1.33 0c-2.447-1.042-4.049-2.357-5.032-3.855C1.32 10.182 1 8.566 1 7V3.48a1.75 1.75 0 0 1 1.217-1.667l5.25-1.68a1.748 1.748 0 0 1 1.066 0Zm-.61 1.429.001.001-5.25 1.68a.251.251 0 0 0-.174.237V7c0 1.36.275 2.666 1.057 3.859.784 1.194 2.121 2.342 4.366 3.298a.196.196 0 0 0 .154 0c2.245-.957 3.582-2.103 4.366-3.297C13.225 9.666 13.5 8.358 13.5 7V3.48a.25.25 0 0 0-.174-.238l-5.25-1.68a.25.25 0 0 0-.153 0ZM9.5 6.5c0 .536-.286 1.032-.75 1.3v2.45a.75.75 0 0 1-1.5 0V7.8A1.5 1.5 0 1 1 9.5 6.5Z"></path>
  </symbol>

  <symbol id="mail" viewBox="0 0 24 24">
    <path d="M1.75 3h20.5c.966 0 1.75.784 1.75 1.75v14a1.75 1.75 0 0 1-1.75 1.75H1.75A1.75 1.75 0 0 1 0 18.75v-14C0 3.784.784 3 1.75 3ZM1.5 7.412V18.75c0 .138.112.25.25.25h20.5a.25.25 0 0 0 .25-.25V7.412l-9.52 6.433c-.592.4-1.368.4-1.96 0Zm0-2.662v.852l10.36 7a.25.25 0 0 0 .28 0l10.36-7V4.75a.25.25 0 0 0-.25-.25H1.75a.25.25 0 0 0-.25.25Z"></path>
  </symbol>

  <symbol id="arrow-left" viewBox="0 0 24 24">
    <path d="M10.78 19.03a.75.75 0 0 1-1.06 0l-6.25-6.25a.75.75 0 0 1 0-1.06l6.25-6.25a.749.749 0 0 1 1.275.326.749.749 0 0 1-.215.734L5.81 11.5h14.44a.75.75 0 0 1 0 1.5H5.81l4.97 4.97a.75.75 0 0 1 0 1.06Z"></path>
  </symbol>
  <symbol id="screen-full" viewBox="0 0 16 16">
    <path d="M1.75 10a.75.75 0 0 1 .75.75v2.5c0 .138.112.25.25.25h2.5a.75.75 0 0 1 0 1.5h-2.5A1.75 1.75 0 0 1 1 13.25v-2.5a.75.75 0 0 1 .75-.75Zm12.5 0a.75.75 0 0 1 .75.75v2.5A1.75 1.75 0 0 1 13.25 15h-2.5a.75.75 0 0 1 0-1.5h2.5a.25.25 0 0 0 .25-.25v-2.5a.75.75 0 0 1 .75-.75ZM2.75 2.5a.25.25 0 0 0-.25.25v2.5a.75.75 0 0 1-1.5 0v-2.5C1 1.784 1.784 1 2.75 1h2.5a.75.75 0 0 1 0 1.5ZM10 1.75a.75.75 0 0 1 .75-.75h2.5c.966 0 1.75.784 1.75 1.75v2.5a.75.75 0 0 1-1.5 0v-2.5a.25.25 0 0 0-.25-.25h-2.5a.75.75 0 0 1-.75-.75Z"></path>
  </symbol>
  <symbol id="grabber" viewBox="0 0 16 16">
    <path d="M10 13a1 1 0 1 1 0-2 1 1 0 0 1 0 2Zm0-4a1 1 0 1 1 0-2 1 1 0 0 1 0 2Zm-4 4a1 1 0 1 1 0-2 1 1 0 0 1 0 2Zm5-9a1 1 0 1 1-2 0 1 1 0 0 1 2 0ZM7 8a1 1 0 1 1-2 0 1 1 0 0 1 2 0ZM6 5a1 1 0 1 1 0-2 1 1 0 0 1 0 2Z"></path>
  </symbol>

  <symbol id="tag" viewBox="0 0 16 16">
    <path d="M1 7.775V2.75C1 1.784 1.784 1 2.75 1h5.025c.464 0 .91.184 1.238.513l6.25 6.25a1.75 1.75 0 0 1 0 2.474l-5.026 5.026a1.75 1.75 0 0 1-2.474 0l-6.25-6.25A1.752 1.752 0 0 1 1 7.775Zm1.5 0c0 .066.026.13.073.177l6.25 6.25a.25.25 0 0 0 .354 0l5.025-5.025a.25.25 0 0 0 0-.354l-6.25-6.25a.25.25 0 0 0-.177-.073H2.75a.25.25 0 0 0-.25.25ZM6 5a1 1 0 1 1 0 2 1 1 0 0 1 0-2Z"></path>
  </symbol>
  <symbol id="calendar" viewBox="0 0 16 16">
    <path d="M4.75 0a.75.75 0 0 1 .75.75V2h5V.75a.75.75 0 0 1 1.5 0V2h1.25c.966 0 1.75.784 1.75 1.75v10.5A1.75 1.75 0 0 1 13.25 16H2.75A1.75 1.75 0 0 1 1 14.25V3.75C1 2.784 1.784 2 2.75 2H4V.75A.75.75 0 0 1 4.75 0ZM2.5 7.5v6.75c0 .138.112.25.25.25h10.5a.25.25 0 0 0 .25-.25V7.5Zm10.75-4H2.75a.25.25 0 0 0-.25.25V6h11V3.75a.25.25 0 0 0-.25-.25Z"></path>
  </symbol>
  <symbol id="milestone" viewBox="0 0 16 16">
    <path d="M7.75 0a.75.75 0 0 1 .75.75V3h3.634c.414 0 .814.147 1.13.414l2.07 1.75a1.75 1.75 0 0 1 0 2.672l-2.07 1.75a1.75 1.75 0 0 1-1.13.414H8.5v5.25a.75.75 0 0 1-1.5 0V10H2.75A1.75 1.75 0 0 1 1 8.25v-3.5C1 3.784 1.784 3 2.75 3H7V.75A.75.75 0 0 1 7.75 0Zm4.384 8.5a.25.25 0 0 0 .161-.06l2.07-1.75a.248.248 0 0 0 0-.38l-2.07-1.75a.25.25 0 0 0-.161-.06H2.75a.25.25 0 0 0-.25.25v3.5c0 .138.112.25.25.25h9.384Z"></path>
  </symbol>
  <symbol id="sort-desc" viewBox="0 0 16 16">
    <path d="M0 4.25a.75.75 0 0 1 .75-.75h7.5a.75.75 0 0 1 0 1.5H.75A.75.75 0 0 1 0 4.25Zm0 4a.75.75 0 0 1 .75-.75h4.5a.75.75 0 0 1 0 1.5H.75A.75.75 0 0 1 0 8.25Zm0 4a.75.75 0 0 1 .75-.75h2.5a.75.75 0 0 1 0 1.5H.75a.75.75 0 0 1-.75-.75ZM13.5 10h2.25a.25.25 0 0 1 .177.427l-3 3a.25.25 0 0 1-.354 0l-3-3A.25.25 0 0 1 9.75 10H12V3.75a.75.75 0 0 1 1.5 0V10Z"></path>
  </symbol>

  <symbol id="alert-fill" viewBox="0 0 12 12">
    <path d="M4.855.708c.5-.896 1.79-.896 2.29 0l4.675 8.351a1.312 1.312 0 0 1-1.146 1.954H1.33A1.313 1.313 0 0 1 .183 9.058ZM7 7V3H5v4Zm-1 3a1 1 0 1 0 0-2 1 1 0 0 0 0 2Z"></path>
  </symbol>
  <symbol id="arkolia-a" viewBox="0 0 16 16">
    <path d="M8.85 1.42 12.88 13.5h-1.62l-.98-3.03H5.72l-.97 3.03H3.12L7.15 1.42Zm1 7.78L8 3.44 6.15 9.2Z"></path>
  </symbol>
  <symbol id="shield" viewBox="0 0 16 16">
    <path d="M7.467.133a1.748 1.748 0 0 1 1.066 0l5.25 1.68A1.75 1.75 0 0 1 15 3.48V7c0 1.566-.32 3.182-1.303 4.682-.983 1.498-2.585 2.813-5.032 3.855a1.697 1.697 0 0 1-1.33 0c-2.447-1.042-4.049-2.357-5.032-3.855C1.32 10.182 1 8.566 1 7V3.48a1.75 1.75 0 0 1 1.217-1.667Zm.61 1.429a.25.25 0 0 0-.153 0l-5.25 1.68a.25.25 0 0 0-.174.238V7c0 1.358.275 2.666 1.057 3.86.784 1.194 2.121 2.34 4.366 3.297a.196.196 0 0 0 .154 0c2.245-.956 3.582-2.104 4.366-3.298C13.225 9.666 13.5 8.36 13.5 7V3.48a.251.251 0 0 0-.174-.237l-5.25-1.68ZM8.75 4.75v3a.75.75 0 0 1-1.5 0v-3a.75.75 0 0 1 1.5 0ZM9 10.5a1 1 0 1 1-2 0 1 1 0 0 1 2 0Z"></path>
  </symbol>

  <symbol id="cpu" viewBox="0 0 16 16">
    <path d="M6.5.75V2h3V.75a.75.75 0 0 1 1.5 0V2h1.25c.966 0 1.75.784 1.75 1.75V5h1.25a.75.75 0 0 1 0 1.5H14v3h1.25a.75.75 0 0 1 0 1.5H14v1.25A1.75 1.75 0 0 1 12.25 14H11v1.25a.75.75 0 0 1-1.5 0V14h-3v1.25a.75.75 0 0 1-1.5 0V14H3.75A1.75 1.75 0 0 1 2 12.25V11H.75a.75.75 0 0 1 0-1.5H2v-3H.75a.75.75 0 0 1 0-1.5H2V3.75C2 2.784 2.784 2 3.75 2H5V.75a.75.75 0 0 1 1.5 0Zm5.75 11.75a.25.25 0 0 0 .25-.25v-8.5a.25.25 0 0 0-.25-.25h-8.5a.25.25 0 0 0-.25.25v8.5c0 .138.112.25.25.25ZM5.75 5h4.5a.75.75 0 0 1 .75.75v4.5a.75.75 0 0 1-.75.75h-4.5a.75.75 0 0 1-.75-.75v-4.5A.75.75 0 0 1 5.75 5Zm.75 4.5h3v-3h-3Z"></path>
  </symbol>
  <symbol id="repo" viewBox="0 0 16 16">
    <path d="M2 2.5A2.5 2.5 0 0 1 4.5 0h8.75a.75.75 0 0 1 .75.75v12.5a.75.75 0 0 1-.75.75h-2.5a.75.75 0 0 1 0-1.5h1.75v-2h-8a1 1 0 0 0-.714 1.7.75.75 0 1 1-1.072 1.05A2.495 2.495 0 0 1 2 11.5Zm10.5-1h-8a1 1 0 0 0-1 1v6.708A2.486 2.486 0 0 1 4.5 9h8ZM5 12.25a.25.25 0 0 1 .25-.25h3.5a.25.25 0 0 1 .25.25v3.25a.25.25 0 0 1-.4.2l-1.45-1.087a.249.249 0 0 0-.3 0L5.4 15.7a.25.25 0 0 1-.4-.2Z"></path>
  </symbol>


  <symbol id="person" viewBox="0 0 16 16">
    <path d="M10.561 8.073a6.005 6.005 0 0 1 3.432 5.142.75.75 0 1 1-1.498.07 4.5 4.5 0 0 0-8.99 0 .75.75 0 0 1-1.498-.07 6.004 6.004 0 0 1 3.431-5.142 3.999 3.999 0 1 1 5.123 0ZM10.5 5a2.5 2.5 0 1 0-5 0 2.5 2.5 0 0 0 5 0Z"></path>
  </symbol>

  <symbol id="sign-out" viewBox="0 0 16 16">
    <path d="M2 2.75C2 1.784 2.784 1 3.75 1h2.5a.75.75 0 0 1 0 1.5h-2.5a.25.25 0 0 0-.25.25v10.5c0 .138.112.25.25.25h2.5a.75.75 0 0 1 0 1.5h-2.5A1.75 1.75 0 0 1 2 13.25Zm10.44 4.5-1.97-1.97a.749.749 0 0 1 .326-1.275.749.749 0 0 1 .734.215l3.25 3.25a.75.75 0 0 1 0 1.06l-3.25 3.25a.749.749 0 0 1-1.275-.326.749.749 0 0 1 .215-.734l1.97-1.97H6.75a.75.75 0 0 1 0-1.5Z"></path>
  </symbol>


  <symbol id="markdown-bold" viewBox="0 0 16 16">
    <path d="M4 2h4.5a3.501 3.501 0 0 1 2.852 5.53A3.499 3.499 0 0 1 9.5 14H4a1 1 0 0 1-1-1V3a1 1 0 0 1 1-1Zm1 7v3h4.5a1.5 1.5 0 0 0 0-3Zm3.5-2a1.5 1.5 0 0 0 0-3H5v3Z"></path>
  </symbol>

  <symbol id="markdown-italic" viewBox="0 0 16 16">
    <path d="M6 2.75A.75.75 0 0 1 6.75 2h6.5a.75.75 0 0 1 0 1.5h-2.505l-3.858 9H9.25a.75.75 0 0 1 0 1.5h-6.5a.75.75 0 0 1 0-1.5h2.505l3.858-9H6.75A.75.75 0 0 1 6 2.75Z"></path>
  </symbol>

  <symbol id="markdown-link" viewBox="0 0 16 16">
    <path d="m7.775 3.275 1.25-1.25a3.5 3.5 0 1 1 4.95 4.95l-2.5 2.5a3.5 3.5 0 0 1-4.95 0 .751.751 0 0 1 .018-1.042.751.751 0 0 1 1.042-.018 1.998 1.998 0 0 0 2.83 0l2.5-2.5a2.002 2.002 0 0 0-2.83-2.83l-1.25 1.25a.751.751 0 0 1-1.042-.018.751.751 0 0 1-.018-1.042Zm-4.69 9.64a1.998 1.998 0 0 0 2.83 0l1.25-1.25a.751.751 0 0 1 1.042.018.751.751 0 0 1 .018 1.042l-1.25 1.25a3.5 3.5 0 1 1-4.95-4.95l2.5-2.5a3.5 3.5 0 0 1 4.95 0 .751.751 0 0 1-.018 1.042.751.751 0 0 1-1.042.018 1.998 1.998 0 0 0-2.83 0l-2.5 2.5a1.998 1.998 0 0 0 0 2.83Z"></path>
  </symbol>

  <symbol id="markdown-list-unordered" viewBox="0 0 16 16">
    <path d="M5.75 2.5h8.5a.75.75 0 0 1 0 1.5h-8.5a.75.75 0 0 1 0-1.5Zm0 5h8.5a.75.75 0 0 1 0 1.5h-8.5a.75.75 0 0 1 0-1.5Zm0 5h8.5a.75.75 0 0 1 0 1.5h-8.5a.75.75 0 0 1 0-1.5ZM2 14a1 1 0 1 1 0-2 1 1 0 0 1 0 2Zm1-6a1 1 0 1 1-2 0 1 1 0 0 1 2 0ZM2 4a1 1 0 1 1 0-2 1 1 0 0 1 0 2Z"></path>
  </symbol>

  <symbol id="markdown-list-ordered" viewBox="0 0 16 16">
    <path d="M5 3.25a.75.75 0 0 1 .75-.75h8.5a.75.75 0 0 1 0 1.5h-8.5A.75.75 0 0 1 5 3.25Zm0 5a.75.75 0 0 1 .75-.75h8.5a.75.75 0 0 1 0 1.5h-8.5A.75.75 0 0 1 5 8.25Zm0 5a.75.75 0 0 1 .75-.75h8.5a.75.75 0 0 1 0 1.5h-8.5a.75.75 0 0 1-.75-.75ZM.924 10.32a.5.5 0 0 1-.851-.525l.001-.001.001-.002.002-.004.007-.011c.097-.144.215-.273.348-.384.228-.19.588-.392 1.068-.392.468 0 .858.181 1.126.484.259.294.377.673.377 1.038 0 .987-.686 1.495-1.156 1.845l-.047.035c-.303.225-.522.4-.654.597h1.357a.5.5 0 0 1 0 1H.5a.5.5 0 0 1-.5-.5c0-1.005.692-1.52 1.167-1.875l.035-.025c.531-.396.8-.625.8-1.078a.57.57 0 0 0-.128-.376C1.806 10.068 1.695 10 1.5 10a.658.658 0 0 0-.429.163.835.835 0 0 0-.144.153ZM2.003 2.5V6h.503a.5.5 0 0 1 0 1H.5a.5.5 0 0 1 0-1h.503V3.308l-.28.14a.5.5 0 0 1-.446-.895l1.003-.5a.5.5 0 0 1 .723.447Z"></path>
  </symbol>

  <symbol id="markdown-tasklist" viewBox="0 0 16 16">
    <path d="M2 2h4a1 1 0 0 1 1 1v4a1 1 0 0 1-1 1H2a1 1 0 0 1-1-1V3a1 1 0 0 1 1-1Zm4.655 8.595a.75.75 0 0 1 0 1.06L4.03 14.28a.75.75 0 0 1-1.06 0l-1.5-1.5a.749.749 0 0 1 .326-1.275.749.749 0 0 1 .734.215l.97.97 2.095-2.095a.75.75 0 0 1 1.06 0ZM9.75 2.5h5.5a.75.75 0 0 1 0 1.5h-5.5a.75.75 0 0 1 0-1.5Zm0 5h5.5a.75.75 0 0 1 0 1.5h-5.5a.75.75 0 0 1 0-1.5Zm0 5h5.5a.75.75 0 0 1 0 1.5h-5.5a.75.75 0 0 1 0-1.5Zm-7.25-9v3h3v-3Z"></path>
  </symbol>

  <symbol id="markdown-mention" viewBox="0 0 16 16">
    <path d="M8 .5a7.499 7.499 0 0 1 7.499 7.462l.002.038v1.164a2.612 2.612 0 0 1-4.783 1.454A3.763 3.763 0 0 1 8 11.776 3.776 3.776 0 1 1 11.776 8v1.164a1.112 1.112 0 0 0 2.225 0L14 8a6 6 0 1 0-3.311 5.365.75.75 0 0 1 .673 1.341A7.5 7.5 0 1 1 8 .5Zm0 5.225a2.275 2.275 0 1 0 0 4.552 2.275 2.275 0 0 0 0-4.552Z"></path>
  </symbol>

  <symbol id="markdown-quote" viewBox="0 0 16 16">
    <path d="M1.75 2h4.5A1.75 1.75 0 0 1 8 3.75v3.5A1.75 1.75 0 0 1 6.25 9H4v2.25a.75.75 0 0 1-1.28.53l-2-2A.75.75 0 0 1 .5 9.25v-5.5A1.75 1.75 0 0 1 2.25 2Zm8 0h4A1.75 1.75 0 0 1 15.5 3.75v3.5A1.75 1.75 0 0 1 13.75 9H12v2.25a.75.75 0 0 1-1.28.53l-2-2a.75.75 0 0 1-.22-.53v-5.5A1.75 1.75 0 0 1 10.25 2Z"></path>
  </symbol>

  <symbol id="markdown-underline" viewBox="0 0 16 16">
    <path d="M3.75 2a.75.75 0 0 1 .75.75v4.5a3.5 3.5 0 1 0 7 0v-4.5a.75.75 0 0 1 1.5 0v4.5a5 5 0 1 1-10 0v-4.5A.75.75 0 0 1 3.75 2ZM2 13.25a.75.75 0 0 1 .75-.75h10.5a.75.75 0 0 1 0 1.5H2.75a.75.75 0 0 1-.75-.75Z"></path>
  </symbol>

</svg>
