<svg xmlns="http://www.w3.org/2000/svg">
  <symbol id="heimdall" viewBox="0 0 24 24">
    <circle cx="12" cy="12" r="11" fill="white"/>
    <g fill="none" stroke="black" stroke-width="1.5" stroke-linecap="round" stroke-linejoin="round">
      <path d="M5.5 15 L8.5 6 L12 10 L15.5 6 L18.5 15"/>
      <path d="M8.8 13.8 L12 17 L15.2 13.8"/>
    </g>
  </symbol>
  <symbol id="file" viewBox="0 0 16 16">
    <path d="M2 1.75C2 .784 2.784 0 3.75 0h6.586c.464 0 .909.184 1.237.513l2.914 2.914c.329.328.513.773.513 1.237v9.586A1.75 1.75 0 0 1 13.25 16h-9.5A1.75 1.75 0 0 1 2 14.25Zm1.75-.25a.25.25 0 0 0-.25.25v12.5c0 .138.112.25.25.25h9.5a.25.25 0 0 0 .25-.25V6h-2.75A1.75 1.75 0 0 1 9 4.25V1.5Zm6.75.062V4.25c0 .138.112.25.25.25h2.688l-.011-.013-2.914-2.914-.013-.011Z"></path>
  </symbol>

  <symbol id="file-directory" viewBox="0 0 16 16">
    <path d="M1.75 1A1.75 1.75 0 0 0 0 2.75v10.5C0 14.216.784 15 1.75 15h12.5A1.75 1.75 0 0 0 16 13.25v-8.5A1.75 1.75 0 0 0 14.25 3H7.5a.25.25 0 0 1-.2-.1l-.9-1.2C6.07 1.26 5.55 1 5 1H1.75Z"></path>
  </symbol>

  <symbol id="issue-opened" viewBox="0 0 16 16">
    <path d="M8 9.5a1.5 1.5 0 1 0 0-3 1.5 1.5 0 0 0 0 3Z"></path>
    <path d="M8 0a8 8 0 1 1 0 16A8 8 0 0 1 8 0ZM1.5 8a6.5 6.5 0 1 0 13 0 6.5 6.5 0 0 0-13 0Z"></path>
  </symbol>

  <symbol id="check-circle" viewBox="0 0 16 16">
    <path d="M0 8a8 8 0 1 1 16 0A8 8 0 0 1 0 8Zm1.5 0a6.5 6.5 0 1 0 13 0 6.5 6.5 0 0 0-13 0Zm10.28-1.72-4.5 4.5a.75.75 0 0 1-1.06 0l-2-2a.751.751 0 0 1 .018-1.042.751.751 0 0 1 1.042-.018l1.47 1.47 3.97-3.97a.751.751 0 0 1 1.042.018.751.751 0 0 1 .018 1.042Z"></path>
  </symbol>

  <symbol id="check-circle-fill" viewBox="0 0 16 16">
    <path d="M8 16A8 8 0 1 1 8 0a8 8 0 0 1 0 16Zm3.78-9.72a.751.751 0 0 0-.018-1.042.751.751 0 0 0-1.042-.018L6.75 9.19 5.28 7.72a.751.751 0 0 0-1.042.018.751.751 0 0 0-.018 1.042l2 2a.75.75 0 0 0 1.06 0Z"></path>
  </symbol>

  <symbol id="skip" viewBox="0 0 16 16">
    <path d="M8 0a8 8 0 1 1 0 16A8 8 0 0 1 8 0ZM1.5 8a6.5 6.5 0 1 0 13 0 6.5 6.5 0 0 0-13 0Zm9.78-2.22-5.5 5.5a.749.749 0 0 1-1.275-.326.749.749 0 0 1 .215-.734l5.5-5.5a.751.751 0 0 1 1.042.018.751.751 0 0 1 .018 1.042Z"></path>
  </symbol>

  <symbol id="slash" viewBox="0 0 16 16">
    <path d="M11.28 4.72a.75.75 0 0 1 0 1.06l-5.5 5.5a.749.749 0 0 1-1.275-.326.749.749 0 0 1 .215-.734l5.5-5.5a.751.751 0 0 1 1.042.018.751.751 0 0 1 .018 1.042Z"></path>
  </symbol>

  <symbol id="dot-fill-pending" viewBox="0 0 16 16">
    <path d="M8 4a4 4 0 1 1 0 8 4 4 0 0 1 0-8Z"></path>
  </symbol>


  <symbol id="alert" viewBox="0 0 16 16">
    <path d="M6.457 1.047c.659-1.234 2.427-1.234 3.086 0l6.082 11.378A1.75 1.75 0 0 1 14.082 15H1.918a1.75 1.75 0 0 1-1.543-2.575Zm1.763.707a.25.25 0 0 0-.44 0L1.698 13.132a.25.25 0 0 0 .22.368h12.164a.25.25 0 0 0 .22-.368Zm.53 3.996v2.5a.75.75 0 0 1-1.5 0v-2.5a.75.75 0 0 1 1.5 0ZM9 11a1 1 0 1 1-2 0 1 1 0 0 1 2 0Z"></path>
  </symbol>
  <symbol id="stop-alert" viewBox="0 0 16 16">
    <path d="M4.47.22A.749.749 0 0 1 5 0h6c.199 0 .389.079.53.22l4.25 4.25c.141.14.22.331.22.53v6a.749.749 0 0 1-.22.53l-4.25 4.25A.749.749 0 0 1 11 16H5a.749.749 0 0 1-.53-.22L.22 11.53A.749.749 0 0 1 0 11V5c0-.199.079-.389.22-.53Zm.84 1.28L1.5 5.31v5.38l3.81 3.81h5.38l3.81-3.81V5.31L10.69 1.5ZM8 4a.75.75 0 0 1 .75.75v3.5a.75.75 0 0 1-1.5 0v-3.5A.75.75 0 0 1 8 4Zm0 8a1 1 0 1 1 0-2 1 1 0 0 1 0 2Z"></path>
  </symbol>
  
  <symbol id="issue-reopened" viewBox="0 0 16 16">
    <path d="M5.029 2.217a6.5 6.5 0 0 1 9.437 5.11.75.75 0 1 0 1.492-.154 8 8 0 0 0-14.315-4.03L.427 1.927A.25.25 0 0 0 0 2.104V5.75A.25.25 0 0 0 .25 6h3.646a.25.25 0 0 0 .177-.427L2.715 4.215a6.491 6.491 0 0 1 2.314-1.998ZM1.262 8.169a.75.75 0 0 0-1.22.658 8.001 8.001 0 0 0 14.315 4.03l1.216 1.216a.25.25 0 0 0 .427-.177V10.25a.25.25 0 0 0-.25-.25h-3.646a.25.25 0 0 0-.177.427l1.358 1.358a6.501 6.501 0 0 1-11.751-3.11.75.75 0 0 0-.272-.506Z"></path>
    <path d="M9.06 9.06a1.5 1.5 0 1 1-2.12-2.12 1.5 1.5 0 0 1 2.12 2.12Z"></path>
  </symbol>

  <symbol id="issue-tracks" viewBox="0 0 16 16">
    <path d="M1.5 8a6.5 6.5 0 0 1 13 0A.75.75 0 0 0 16 8a8 8 0 1 0-8 8 .75.75 0 0 0 0-1.5A6.5 6.5 0 0 1 1.5 8Z"></path>
    <path d="M8 9.5a1.5 1.5 0 1 0 0-3 1.5 1.5 0 0 0 0 3Zm1.5 1.75a.75.75 0 0 1 .75-.75h5a.75.75 0 0 1 0 1.5h-5a.75.75 0 0 1-.75-.75Zm2.75 2.25a.75.75 0 0 0 0 1.5h3a.75.75 0 0 0 0-1.5h-3Z"></path>
  </symbol>

  <symbol id="history" viewBox="0 0 16 16">
    <path d="m.427 1.927 1.215 1.215a8.002 8.002 0 1 1-1.6 5.685.75.75 0 1 1 1.493-.154 6.5 6.5 0 1 0 1.18-4.458l1.358 1.358A.25.25 0 0 1 3.896 6H.25A.25.25 0 0 1 0 5.75V2.104a.25.25 0 0 1 .427-.177ZM7.75 4a.75.75 0 0 1 .75.75v2.992l2.028.812a.75.75 0 0 1-.557 1.392l-2.5-1A.751.751 0 0 1 7 8.25v-3.5A.75.75 0 0 1 7.75 4Z"></path>
  </symbol>

  <symbol id="git-branch" viewBox="0 0 16 16">
    <path d="M9.5 3.25a2.25 2.25 0 1 1 3 2.122V6A2.5 2.5 0 0 1 10 8.5H6a1 1 0 0 0-1 1v1.128a2.251 2.251 0 1 1-1.5 0V5.372a2.25 2.25 0 1 1 1.5 0v1.836A2.493 2.493 0 0 1 6 7h4a1 1 0 0 0 1-1v-.628A2.25 2.25 0 0 1 9.5 3.25Zm-6 0a.75.75 0 1 0 1.5 0 .75.75 0 0 0-1.5 0Zm8.25-.75a.75.75 0 1 0 0 1.5.75.75 0 0 0 0-1.5ZM4.25 12a.75.75 0 1 0 0 1.5.75.75 0 0 0 0-1.5Z"></path>
  </symbol>

  <symbol id="git-pull-request" viewBox="0 0 16 16">
    <path d="M1.5 3.25a2.25 2.25 0 1 1 3 2.122v5.256a2.251 2.251 0 1 1-1.5 0V5.372A2.25 2.25 0 0 1 1.5 3.25Zm5.677-.177L9.573.677A.25.25 0 0 1 10 .854V2.5h1A2.5 2.5 0 0 1 13.5 5v5.628a2.251 2.251 0 1 1-1.5 0V5a1 1 0 0 0-1-1h-1v1.646a.25.25 0 0 1-.427.177L7.177 3.427a.25.25 0 0 1 0-.354ZM3.75 2.5a.75.75 0 1 0 0 1.5.75.75 0 0 0 0-1.5Zm0 9.5a.75.75 0 1 0 0 1.5.75.75 0 0 0 0-1.5Zm8.25.75a.75.75 0 1 0 1.5 0 .75.75 0 0 0-1.5 0Z"></path>
  </symbol>

  <symbol id="comment-discussion" viewBox="0 0 16 16">
    <path d="M1.75 1h8.5c.966 0 1.75.784 1.75 1.75v5.5A1.75 1.75 0 0 1 10.25 10H7.061l-2.574 2.573A1.458 1.458 0 0 1 2 11.543V10h-.25A1.75 1.75 0 0 1 0 8.25v-5.5C0 1.784.784 1 1.75 1ZM1.5 2.75v5.5c0 .138.112.25.25.25h1a.75.75 0 0 1 .75.75v2.19l2.72-2.72a.749.749 0 0 1 .53-.22h3.5a.25.25 0 0 0 .25-.25v-5.5a.25.25 0 0 0-.25-.25h-8.5a.25.25 0 0 0-.25.25Zm13 2a.25.25 0 0 0-.25-.25h-.5a.75.75 0 0 1 0-1.5h.5c.966 0 1.75.784 1.75 1.75v5.5A1.75 1.75 0 0 1 14.25 12H14v1.543a1.458 1.458 0 0 1-2.487 1.03L9.22 12.28a.749.749 0 0 1 .326-1.275.749.749 0 0 1 .734.215l2.22 2.22v-2.19a.75.75 0 0 1 .75-.75h1a.25.25 0 0 0 .25-.25Z"></path>
  </symbol>

  <symbol id="comment" viewBox="0 0 16 16">
    <path d="M1.75 2A1.75 1.75 0 0 0 0 3.75v6.5C0 11.216.784 12 1.75 12H4.5l2.354 2.354a.75.75 0 0 0 1.28-.53V12h6.116A1.75 1.75 0 0 0 16 10.25v-6.5A1.75 1.75 0 0 0 14.25 2H1.75Z"></path>
  </symbol>

  <symbol id="play" viewBox="0 0 16 16">
    <path d="M8 0a8 8 0 1 1 0 16A8 8 0 0 1 8 0ZM1.5 8a6.5 6.5 0 1 0 13 0 6.5 6.5 0 0 0-13 0Zm4.879-2.773 4.264 2.559a.25.25 0 0 1 0 .428l-4.264 2.559A.25.25 0 0 1 6 10.559V5.442a.25.25 0 0 1 .379-.215Z"></path>
  </symbol>

  <symbol id="pulse" viewBox="0 0 16 16">
    <path d="M6 2c.306 0 .582.187.696.471L10 10.731l1.304-3.26A.751.751 0 0 1 12 7h3.25a.75.75 0 0 1 0 1.5h-2.742l-1.812 4.528a.751.751 0 0 1-1.392 0L6 4.77 4.696 8.03A.75.75 0 0 1 4 8.5H.75a.75.75 0 0 1 0-1.5h2.742l1.812-4.529A.751.751 0 0 1 6 2Z"></path>
  </symbol>

  <symbol id="fire" viewBox="0 0 16 16">
      <path d="M9.533.753V.752c.217 2.385 1.463 3.626 2.653 4.81C13.37 6.74 14.498 7.863 14.498 10c0 3.5-3 6-6.5 6S1.5 13.512 1.5 10c0-1.298.536-2.56 1.425-3.286.376-.308.862 0 1.035.454C4.46 8.487 5.581 8.419 6 8c.282-.282.341-.811-.003-1.5C4.34 3.187 7.035.75 8.77.146c.39-.137.726.194.763.607ZM7.998 14.5c2.832 0 5-1.98 5-4.5 0-1.463-.68-2.19-1.879-3.383l-.036-.037c-1.013-1.008-2.3-2.29-2.834-4.434-.322.256-.63.579-.864.953-.432.696-.621 1.58-.046 2.73.473.947.67 2.284-.278 3.232-.61.61-1.545.84-2.403.633a2.79 2.79 0 0 1-1.436-.874A3.198 3.198 0 0 0 3 10c0 2.53 2.164 4.5 4.998 4.5Z"></path>
  </symbol>
  
  <symbol id="accessibility" viewBox="0 0 16 16">
    <path d="M2 5.5a3.5 3.5 0 1 1 5.898 2.549 5.508 5.508 0 0 1 3.034 4.084.75.75 0 1 1-1.482.235 4 4 0 0 0-7.9 0 .75.75 0 0 1-1.482-.236A5.507 5.507 0 0 1 3.102 8.05 3.493 3.493 0 0 1 2 5.5ZM11 4a3.001 3.001 0 0 1 2.22 5.018 5.01 5.01 0 0 1 2.56 3.012.749.749 0 0 1-.885.954.752.752 0 0 1-.549-.514 3.507 3.507 0 0 0-2.522-2.372.75.75 0 0 1-.574-.73v-.352a.75.75 0 0 1 .416-.672A1.5 1.5 0 0 0 11 5.5.75.75 0 0 1 11 4Zm-5.5-.5a2 2 0 1 0-.001 3.999A2 2 0 0 0 5.5 3.5Z"></path>
  </symbol>
  
  <symbol id="thermometer" viewBox="0 0 16 16">
    <g fill="none" stroke="currentColor" stroke-width="1.5" stroke-linecap="round" stroke-linejoin="round">
      <path d="M8 2a1.75 1.75 0 0 0-1.75 1.75v5.83a3.25 3.25 0 1 0 3.5 0V3.75A1.75 1.75 0 0 0 8 2Z"></path>
      <path d="M8 6v4.35"></path>
      <path d="M11.75 4.5h1.5"></path>
      <path d="M11.75 7h1.5"></path>
      <path d="M11.75 9.5h1.5"></path>
      <path d="M11.75 12h1.5"></path>
    </g>
    <circle cx="8" cy="12.75" r="1.7"></circle>
  </symbol>

  <symbol id="speaker" viewBox="0 0 16 16">
    <g fill="none" stroke="currentColor" stroke-width="1.5" stroke-linecap="round" stroke-linejoin="round">
      <path d="M2.5 6.2h2.2l2.9-2.45v8.5L4.7 9.8H2.5Z"></path>
      <path d="M10.35 6.1a3.1 3.1 0 0 1 0 3.8"></path>
      <path d="M12.35 4.65a5.35 5.35 0 0 1 0 6.7"></path>
    </g>
  </symbol>
  <symbol id="organization" viewBox="0 0 16 16">
    <path d="M1.75 16A1.75 1.75 0 0 1 0 14.25V1.75C0 .784.784 0 1.75 0h8.5C11.216 0 12 .784 12 1.75v12.5c0 .085-.006.168-.018.25h2.268a.25.25 0 0 0 .25-.25V8.285a.25.25 0 0 0-.111-.208l-1.055-.703a.749.749 0 1 1 .832-1.248l1.055.703c.487.325.779.871.779 1.456v5.965A1.75 1.75 0 0 1 14.25 16h-3.5a.766.766 0 0 1-.197-.026c-.099.017-.2.026-.303.026h-3a.75.75 0 0 1-.75-.75V14h-1v1.25a.75.75 0 0 1-.75.75Zm-.25-1.75c0 .138.112.25.25.25H4v-1.25a.75.75 0 0 1 .75-.75h2.5a.75.75 0 0 1 .75.75v1.25h2.25a.25.25 0 0 0 .25-.25V1.75a.25.25 0 0 0-.25-.25h-8.5a.25.25 0 0 0-.25.25ZM3.75 6h.5a.75.75 0 0 1 0 1.5h-.5a.75.75 0 0 1 0-1.5ZM3 3.75A.75.75 0 0 1 3.75 3h.5a.75.75 0 0 1 0 1.5h-.5A.75.75 0 0 1 3 3.75Zm4 3A.75.75 0 0 1 7.75 6h.5a.75.75 0 0 1 0 1.5h-.5A.75.75 0 0 1 7 6.75ZM7.75 3h.5a.75.75 0 0 1 0 1.5h-.5A.75.75 0 0 1 7.75 3ZM3 9.75A.75.75 0 0 1 3.75 9h.5a.75.75 0 0 1 0 1.5h-.5A.75.75 0 0 1 3 9.75ZM7.75 9h.5a.75.75 0 0 1 0 1.5h-.5A.75.75 0 0 1 7.75 9Z"></path>
  </symbol>

  <symbol id="table" viewBox="0 0 16 16">
    <path d="M0 1.75C0 .784.784 0 1.75 0h12.5C15.216 0 16 .784 16 1.75v12.5A1.75 1.75 0 0 1 14.25 16H1.75A1.75 1.75 0 0 1 0 14.25ZM6.5 6.5v8h7.75a.25.25 0 0 0 .25-.25V6.5Zm8-1.5V1.75a.25.25 0 0 0-.25-.25H6.5V5Zm-13 1.5v7.75c0 .138.112.25.25.25H5v-8ZM5 5V1.5H1.75a.25.25 0 0 0-.25.25V5Z"></path>
  </symbol>

  <symbol id="table-check" viewBox="0 0 16 16">
    <path d="M14.25 0C15.2165 0 16 0.783502 16 1.75V8.24805C16 8.66226 15.6642 9 15.25 9C14.8358 9 14.5 8.66421 14.5 8.25V6.5H6.5V14.5H7.25C7.66421 14.5 8 14.8358 8 15.25C8 15.6642 7.66317 15.9999 7.24902 16H1.75C0.783501 16 0 15.2165 0 14.25V1.75C0 0.783501 0.783502 0 1.75 0H14.25ZM1.5 14.25C1.5 14.3881 1.61193 14.5 1.75 14.5H5V6.5H1.5V14.25ZM1.75 1.5C1.61193 1.5 1.5 1.61193 1.5 1.75V5H5V1.5H1.75ZM6.5 1.5V5H14.5V1.75C14.5 1.61193 14.3881 1.5 14.25 1.5H6.5Z"></path><path d="M15.9625 11.7368C15.9659 11.9311 15.8938 12.1191 15.7613 12.2613L12.2613 15.7613C12.1207 15.9017 11.93 15.9806 11.7313 15.9806C11.5325 15.9806 11.3419 15.9017 11.2013 15.7613L9.20129 13.7613C9.06881 13.6191 8.99669 13.4311 9.00012 13.2368C9.00355 13.0425 9.08226 12.8571 9.21967 12.7197C9.35708 12.5823 9.54247 12.5035 9.73677 12.5001C9.93107 12.4967 10.1191 12.5688 10.2613 12.7013L11.7313 14.1713L14.7013 11.2013C14.8435 11.0688 15.0315 10.9967 15.2258 11.0001C15.4201 11.0035 15.6055 11.0823 15.7429 11.2197C15.8803 11.3571 15.959 11.5425 15.9625 11.7368Z"></path>
  </symbol>
  
  <symbol id="book" viewBox="0 0 16 16">
    <path d="M0 1.75A.75.75 0 0 1 .75 1h4.253c1.227 0 2.317.59 3 1.501A3.743 3.743 0 0 1 11.006 1h4.245a.75.75 0 0 1 .75.75v10.5a.75.75 0 0 1-.75.75h-4.507a2.25 2.25 0 0 0-1.591.659l-.622.621a.75.75 0 0 1-1.06 0l-.622-.621A2.25 2.25 0 0 0 5.258 13H.75a.75.75 0 0 1-.75-.75Zm7.251 10.324.004-5.073-.002-2.253A2.25 2.25 0 0 0 5.003 2.5H1.5v9h3.757a3.75 3.75 0 0 1 1.994.574ZM8.755 4.75l-.004 7.322a3.752 3.752 0 0 1 1.992-.572H14.5v-9h-3.495a2.25 2.25 0 0 0-2.25 2.25Z"></path>
  </symbol>

  <symbol id="fire" viewBox="0 0 16 16">
    <path fill="currentColor" d="M8.06.75c.17 1.06.76 1.92 1.52 2.86.78.95 1.57 1.95 1.92 3.28.38-.28.71-.68.98-1.2.11-.21.4-.22.53-.02.55.83.85 1.84.85 2.96 0 1.78-.77 3.33-2.04 4.46C10.54 14.18 8.77 15 6.78 15c-1.78 0-3.31-.54-4.42-1.63C1.24 12.27.7 10.75.7 8.98c0-1.84.72-3.56 1.83-5.01 1.03-1.33 2.39-2.43 3.94-3.22.26-.13.57.03.59.3.07.95.34 1.84.83 2.8.05-.95.39-1.9 1.17-3 .2-.29.67-.17.72.2Zm.27 4.74c-.92 1.16-1.34 2.18-1.34 3.12 0 1.03.43 1.84 1.1 2.47.39.36.86.66 1.37.91.51-.44.92-.93 1.2-1.48.31-.62.47-1.28.47-2 0-.84-.31-1.54-.86-2.28-.42-.56-.96-1.14-1.5-1.87-.11.39-.26.76-.44 1.13Z"/>
  </symbol>

  <symbol id="graph" viewBox="0 0 16 16">
    <path d="M1.5 1.75V13.5h13.75a.75.75 0 0 1 0 1.5H.75a.75.75 0 0 1-.75-.75V1.75a.75.75 0 0 1 1.5 0Zm14.28 2.53-5.25 5.25a.75.75 0 0 1-1.06 0L7 7.06 4.28 9.78a.751.751 0 0 1-1.042-.018.751.751 0 0 1-.018-1.042l3.25-3.25a.75.75 0 0 1 1.06 0L10 7.94l4.72-4.72a.751.751 0 0 1 1.042.018.751.751 0 0 1 .018 1.042Z"></path>
  </symbol>

  <symbol id="gear" viewBox="0 0 16 16">
    <path d="M8 0a8.2 8.2 0 0 1 .701.031C9.444.095 9.99.645 10.16 1.29l.288 1.107c.018.066.079.158.212.224.231.114.454.243.668.386.123.082.233.09.299.071l1.103-.303c.644-.176 1.392.021 1.82.63.27.385.506.792.704 1.218.315.675.111 1.422-.364 1.891l-.814.806c-.049.048-.098.147-.088.294.016.257.016.515 0 .772-.01.147.038.246.088.294l.814.806c.475.469.679 1.216.364 1.891a7.977 7.977 0 0 1-.704 1.217c-.428.61-1.176.807-1.82.63l-1.102-.302c-.067-.019-.177-.011-.3.071a5.909 5.909 0 0 1-.668.386c-.133.066-.194.158-.211.224l-.29 1.106c-.168.646-.715 1.196-1.458 1.26a8.006 8.006 0 0 1-1.402 0c-.743-.064-1.289-.614-1.458-1.26l-.289-1.106c-.018-.066-.079-.158-.212-.224a5.738 5.738 0 0 1-.668-.386c-.123-.082-.233-.09-.299-.071l-1.103.303c-.644.176-1.392-.021-1.82-.63a8.12 8.12 0 0 1-.704-1.218c-.315-.675-.111-1.422.363-1.891l.815-.806c.05-.048.098-.147.088-.294a6.214 6.214 0 0 1 0-.772c.01-.147-.038-.246-.088-.294l-.815-.806C.635 6.045.431 5.298.746 4.623a7.92 7.92 0 0 1 .704-1.217c.428-.61 1.176-.807 1.82-.63l1.102.302c.067.019.177.011.3-.071.214-.143.437-.272.668-.386.133-.066.194-.158.211-.224l.29-1.106C6.009.645 6.556.095 7.299.03 7.53.01 7.764 0 8 0Zm-.571 1.525c-.036.003-.108.036-.137.146l-.289 1.105c-.147.561-.549.967-.998 1.189-.173.086-.34.183-.5.29-.417.278-.97.423-1.529.27l-1.103-.303c-.109-.03-.175.016-.195.045-.22.312-.412.644-.573.99-.014.031-.021.11.059.19l.815.806c.411.406.562.957.53 1.456a4.709 4.709 0 0 0 0 .582c.032.499-.119 1.05-.53 1.456l-.815.806c-.081.08-.073.159-.059.19.162.346.353.677.573.989.02.03.085.076.195.046l1.102-.303c.56-.153 1.113-.008 1.53.27.161.107.328.204.501.29.447.222.85.629.997 1.189l.289 1.105c.029.109.101.143.137.146a6.6 6.6 0 0 0 1.142 0c.036-.003.108-.036.137-.146l.289-1.105c.147-.561.549-.967.998-1.189.173-.086.34-.183.5-.29.417-.278.97-.423 1.529-.27l1.103.303c.109.029.175-.016.195-.045.22-.313.411-.644.573-.99.014-.031.021-.11-.059-.19l-.815-.806c-.411-.406-.562-.957-.53-1.456a4.709 4.709 0 0 0 0-.582c-.032-.499.119-1.05.53-1.456l.815-.806c.081-.08.073-.159.059-.19a6.464 6.464 0 0 0-.573-.989c-.02-.03-.085-.076-.195-.046l-1.102.303c-.56.153-1.113.008-1.53-.27a4.44 4.44 0 0 0-.501-.29c-.447-.222-.85-.629-.997-1.189l-.289-1.105c-.029-.11-.101-.143-.137-.146a6.6 6.6 0 0 0-1.142 0ZM11 8a3 3 0 1 1-6 0 3 3 0 0 1 6 0ZM9.5 8a1.5 1.5 0 1 0-3.001.001A1.5 1.5 0 0 0 9.5 8Z"></path>
  </symbol>

  <symbol id="three-bars" viewBox="0 0 16 16">
    <path d="M1 2.75A.75.75 0 0 1 1.75 2h12.5a.75.75 0 0 1 0 1.5H1.75A.75.75 0 0 1 1 2.75Zm0 5A.75.75 0 0 1 1.75 7h12.5a.75.75 0 0 1 0 1.5H1.75A.75.75 0 0 1 1 7.75ZM1.75 12h12.5a.75.75 0 0 1 0 1.5H1.75a.75.75 0 0 1 0-1.5Z"></path>
  </symbol>

  <symbol id="x" viewBox="0 0 16 16">
    <path d="M3.72 3.72a.75.75 0 0 1 1.06 0L8 6.94l3.22-3.22a.75.75 0 1 1 1.06 1.06L9.06 8l3.22 3.22a.75.75 0 1 1-1.06 1.06L8 9.06l-3.22 3.22a.75.75 0 0 1-1.06-1.06L6.94 8 3.72 4.78a.75.75 0 0 1 0-1.06Z"></path>
  </symbol>

  <symbol id="search" viewBox="0 0 16 16">
    <path d="M10.68 11.74a6 6 0 0 1-7.922-8.982 6 6 0 0 1 8.982 7.922l3.04 3.04a.749.749 0 0 1-.326 1.275.749.749 0 0 1-.734-.215ZM11.5 7a4.499 4.499 0 1 0-8.997 0A4.499 4.499 0 0 0 11.5 7Z"></path>
  </symbol>

  <symbol id="git-commit" viewBox="0 0 16 16">
    <path d="M11.93 8.5a4.002 4.002 0 0 1-7.86 0H.75a.75.75 0 0 1 0-1.5h3.32a4.002 4.002 0 0 1 7.86 0h3.32a.75.75 0 0 1 0 1.5Zm-1.43-.75a2.5 2.5 0 1 0-5 0 2.5 2.5 0 0 0 5 0Z"></path>
  </symbol>

  <symbol id="people" viewBox="0 0 16 16">
    <path d="M2 5.5a3.5 3.5 0 1 1 5.898 2.549 5.508 5.508 0 0 1 3.034 4.084.75.75 0 1 1-1.482.235 4 4 0 0 0-7.9 0 .75.75 0 0 1-1.482-.236A5.507 5.507 0 0 1 3.102 8.05 3.493 3.493 0 0 1 2 5.5ZM11 4a3.001 3.001 0 0 1 2.22 5.018 5.01 5.01 0 0 1 2.56 3.012.749.749 0 0 1-.885.954.752.752 0 0 1-.549-.514 3.507 3.507 0 0 0-2.522-2.372.75.75 0 0 1-.574-.73v-.352a.75.75 0 0 1 .416-.672A1.5 1.5 0 0 0 11 5.5.75.75 0 0 1 11 4Zm-5.5-.5a2 2 0 1 0-.001 3.999A2 2 0 0 0 5.5 3.5Z"></path>
  </symbol>

  <symbol id="pin" viewBox="0 0 16 16">
    <path d="M7.75 0a4.75 4.75 0 0 1 4.75 4.75c0 3.124-3.266 6.717-4.148 7.63a.5.5 0 0 1-.704 0C6.766 11.467 3.5 7.874 3.5 4.75A4.25 4.25 0 0 1 7.75 0Zm0 6.5a1.75 1.75 0 1 0 0-3.5 1.75 1.75 0 0 0 0 3.5Z"></path>
    <path d="M7.75 15.5a.75.75 0 0 1-.75-.75v-1.3a.75.75 0 0 1 1.5 0v1.3a.75.75 0 0 1-.75.75Z"></path>
  </symbol>

  <symbol id="checklist" viewBox="0 0 16 16">
    <path d="M3.75 2a.75.75 0 0 1 .75.75V3h7.75a.75.75 0 0 1 0 1.5H4.5v.25a.75.75 0 0 1-1.5 0v-2A.75.75 0 0 1 3.75 2Zm0 4.5a.75.75 0 0 1 .75.75v.25h7.75a.75.75 0 0 1 0 1.5H4.5v.25a.75.75 0 0 1-1.5 0v-2a.75.75 0 0 1 .75-.75Zm0 4.5a.75.75 0 0 1 .75.75V12h7.75a.75.75 0 0 1 0 1.5H4.5v.25a.75.75 0 0 1-1.5 0v-2a.75.75 0 0 1 .75-.75Z"></path>
  </symbol>


  <symbol id="ai-model" viewBox="0 0 16 16">
    <path d="M10.628 7.25a2.25 2.25 0 1 1 0 1.5H8.622a2.25 2.25 0 0 1-2.513 1.466L5.03 12.124a2.25 2.25 0 1 1-1.262-.814l1.035-1.832A2.245 2.245 0 0 1 4.25 8c0-.566.209-1.082.553-1.478L3.768 4.69a2.25 2.25 0 1 1 1.262-.814l1.079 1.908A2.25 2.25 0 0 1 8.622 7.25ZM2.5 2.5a.75.75 0 1 0 1.5 0 .75.75 0 0 0-1.5 0Zm4 4.75a.75.75 0 1 0 0 1.5.75.75 0 0 0 0-1.5Zm6.25 0a.75.75 0 1 0 0 1.5.75.75 0 0 0 0-1.5Zm-9.5 5.5a.75.75 0 1 0 0 1.5.75.75 0 0 0 0-1.5Z"></path>
  </symbol>
  <symbol id="avatar-human" viewBox="0 0 24 24">
    <path d="M12 12a5 5 0 1 0-5-5 5 5 0 0 0 5 5Zm0 2c-5.06 0-9 2.39-9 5.25V22h18v-2.75C21 16.39 17.06 14 12 14Z"></path>
  </symbol>

  <symbol id="arrow-up" viewBox="0 0 16 16">
    <path d="M8.53 1.22a.75.75 0 0 0-1.06 0L3.22 5.47a.75.75 0 0 0 1.06 1.06L7.25 3.56V14a.75.75 0 0 0 1.5 0V3.56l2.97 2.97a.75.75 0 1 0 1.06-1.06L8.53 1.22Z"></path>
  </symbol>

  <symbol id="chevron-down" viewBox="0 0 16 16">
    <path d="M4 6l4 4 4-4" fill="none" stroke="currentColor" stroke-width="1.5" stroke-linecap="round" stroke-linejoin="round"></path>
  </symbol>

    <symbol id="pencil" viewBox="0 0 16 16">
    <path d="M11.013 1.427a1.75 1.75 0 0 1 2.474 0l1.086 1.086a1.75 1.75 0 0 1 0 2.474l-8.61 8.61c-.21.21-.47.364-.756.445l-3.251.93a.75.75 0 0 1-.927-.928l.929-3.25c.081-.286.235-.547.445-.758l8.61-8.61Zm.176 4.823L9.75 4.81l-6.286 6.287a.253.253 0 0 0-.064.108l-.558 1.953 1.953-.558a.253.253 0 0 0 .108-.064Zm1.238-3.763a.25.25 0 0 0-.354 0L10.811 3.75l1.439 1.44 1.263-1.263a.25.25 0 0 0 0-.354Z"></path>
  </symbol>

  <symbol id="check" viewBox="0 0 16 16">
    <path d="M13.78 3.97a.75.75 0 0 1 0 1.06L6.81 12 2.22 7.41a.75.75 0 1 1 1.06-1.06l3.53 3.53 5.91-5.91a.75.75 0 0 1 1.06 0Z"></path>
  </symbol>

    <symbol id="discussion-closed" viewBox="0 0 16 16">
    <path d="M0 2.75C0 1.783.784 1 1.75 1h8.5c.967 0 1.75.783 1.75 1.75v5.5A1.75 1.75 0 0 1 10.25 10H7.061l-2.574 2.573A1.457 1.457 0 0 1 2 11.543V10h-.25A1.75 1.75 0 0 1 0 8.25Zm1.75-.25a.25.25 0 0 0-.25.25v5.5c0 .138.112.25.25.25h1a.75.75 0 0 1 .75.75v2.189L6.22 8.72a.747.747 0 0 1 .53-.22h3.5a.25.25 0 0 0 .25-.25v-5.5a.25.25 0 0 0-.25-.25Zm12.5 2h-.5a.75.75 0 0 1 0-1.5h.5c.967 0 1.75.783 1.75 1.75v5.5A1.75 1.75 0 0 1 14.25 12H14v1.543a1.457 1.457 0 0 1-2.487 1.03L9.22 12.28a.749.749 0 1 1 1.06-1.06l2.22 2.219V11.25a.75.75 0 0 1 .75-.75h1a.25.25 0 0 0 .25-.25v-5.5a.25.25 0 0 0-.25-.25Zm-5.47.28-3 3a.747.747 0 0 1-1.06 0l-1.5-1.5a.749.749 0 1 1 1.06-1.06l.97.969L7.72 3.72a.749.749 0 1 1 1.06 1.06Z"></path>
  </symbol>

  <symbol id="discussion-outdated" viewBox="0 0 16 16">
    <path d="M0 2.75C0 1.783.784 1 1.75 1h8.5c.967 0 1.75.783 1.75 1.75v5.5A1.75 1.75 0 0 1 10.25 10H7.061l-2.574 2.573A1.457 1.457 0 0 1 2 11.543V10h-.25A1.75 1.75 0 0 1 0 8.25Zm1.75-.25a.25.25 0 0 0-.25.25v5.5c0 .138.112.25.25.25h1a.75.75 0 0 1 .75.75v2.189L6.22 8.72a.747.747 0 0 1 .53-.22h3.5a.25.25 0 0 0 .25-.25v-5.5a.25.25 0 0 0-.25-.25Zm12.5 2h-.5a.75.75 0 0 1 0-1.5h.5c.967 0 1.75.783 1.75 1.75v5.5A1.75 1.75 0 0 1 14.25 12H14v1.543a1.457 1.457 0 0 1-2.487 1.03L9.22 12.28a.749.749 0 1 1 1.06-1.06l2.22 2.219V11.25a.75.75 0 0 1 .75-.75h1a.25.25 0 0 0 .25-.25v-5.5a.25.25 0 0 0-.25-.25ZM6.5 4v1.492l.466.187.036.015.812.375a.75.75 0 1 1-.628 1.362l-.795-.367-.92-.368A.75.75 0 0 1 5 6V4a.75.75 0 0 1 1.5 0Z"></path>
  </symbol>

  <symbol id="discussion-duplicate" viewBox="0 0 16 16">
    <path d="M0 2.75C0 1.783.784 1 1.75 1h8.5c.967 0 1.75.783 1.75 1.75v5.5A1.75 1.75 0 0 1 10.25 10H7.061l-2.574 2.573A1.457 1.457 0 0 1 2 11.543V10h-.25A1.75 1.75 0 0 1 0 8.25Zm1.75-.25a.25.25 0 0 0-.25.25v5.5c0 .138.112.25.25.25h1a.75.75 0 0 1 .75.75v2.189L6.22 8.72a.747.747 0 0 1 .53-.22h3.5a.25.25 0 0 0 .25-.25v-5.5a.25.25 0 0 0-.25-.25Zm12.5 2h-.5a.75.75 0 0 1 0-1.5h.5c.967 0 1.75.783 1.75 1.75v5.5A1.75 1.75 0 0 1 14.25 12H14v1.543a1.457 1.457 0 0 1-2.487 1.03L9.22 12.28a.749.749 0 1 1 1.06-1.06l2.22 2.219V11.25a.75.75 0 0 1 .75-.75h1a.25.25 0 0 0 .25-.25v-5.5a.25.25 0 0 0-.25-.25Zm-6.282.03L5.03 7.468a.749.749 0 1 1-1.06-1.061L6.907 3.47a.75.75 0 0 1 1.061 1.06Z"></path>
  </symbol>

  <symbol id="mail" viewBox="0 0 24 24">
    <path d="M1.75 3h20.5c.966 0 1.75.784 1.75 1.75v14a1.75 1.75 0 0 1-1.75 1.75H1.75A1.75 1.75 0 0 1 0 18.75v-14C0 3.784.784 3 1.75 3ZM1.5 7.412V18.75c0 .138.112.25.25.25h20.5a.25.25 0 0 0 .25-.25V7.412l-9.52 6.433c-.592.4-1.368.4-1.96 0Zm0-2.662v.852l10.36 7a.25.25 0 0 0 .28 0l10.36-7V4.75a.25.25 0 0 0-.25-.25H1.75a.25.25 0 0 0-.25.25Z"></path>
  </symbol>

  <symbol id="avis" viewBox="0 0 16 16">
    <path d="m9.585.52.929.68c.153.112.331.186.518.215l1.138.175a2.678 2.678 0 0 1 2.24 2.24l.174 1.139c.029.187.103.365.215.518l.68.928a2.677 2.677 0 0 1 0 3.17l-.68.928a1.174 1.174 0 0 0-.215.518l-.175 1.138a2.678 2.678 0 0 1-2.241 2.241l-1.138.175a1.17 1.17 0 0 0-.518.215l-.928.68a2.677 2.677 0 0 1-3.17 0l-.928-.68a1.174 1.174 0 0 0-.518-.215L3.83 14.41a2.678 2.678 0 0 1-2.24-2.24l-.175-1.138a1.17 1.17 0 0 0-.215-.518l-.68-.928a2.677 2.677 0 0 1 0-3.17l.68-.928c.112-.153.186-.331.215-.518l.175-1.14a2.678 2.678 0 0 1 2.24-2.24l1.139-.175c.187-.029.365-.103.518-.215l.928-.68a2.677 2.677 0 0 1 3.17 0ZM7.303 1.728l-.927.68a2.67 2.67 0 0 1-1.18.489l-1.137.174a1.179 1.179 0 0 0-.987.987l-.174 1.136a2.677 2.677 0 0 1-.489 1.18l-.68.928a1.18 1.18 0 0 0 0 1.394l.68.927c.256.348.424.753.489 1.18l.174 1.137c.078.509.478.909.987.987l1.136.174a2.67 2.67 0 0 1 1.18.489l.928.68c.414.305.979.305 1.394 0l.927-.68a2.67 2.67 0 0 1 1.18-.489l1.137-.174a1.18 1.18 0 0 0 .987-.987l.174-1.136a2.67 2.67 0 0 1 .489-1.18l.68-.928a1.176 1.176 0 0 0 0-1.394l-.68-.927a2.686 2.686 0 0 1-.489-1.18l-.174-1.137a1.179 1.179 0 0 0-.987-.987l-1.136-.174a2.677 2.677 0 0 1-1.18-.489l-.928-.68a1.176 1.176 0 0 0-1.394 0ZM11.28 6.78l-3.75 3.75a.75.75 0 0 1-1.06 0L4.72 8.78a.751.751 0 0 1 .018-1.042.751.751 0 0 1 1.042-.018L7 8.94l3.22-3.22a.751.751 0 0 1 1.042.018.751.751 0 0 1 .018 1.042Z"></path>
  </symbol>

  <symbol id="avis-rejected" viewBox="0 0 16 16" fill="rgb(218, 54, 51)">
    <path d="M3.72 3.72a.75.75 0 0 1 1.06 0L8 6.94l3.22-3.22a.749.749 0 0 1 1.275.326.749.749 0 0 1-.215.734L9.06 8l3.22 3.22a.749.749 0 0 1-.326 1.275.749.749 0 0 1-.734-.215L8 9.06l-3.22 3.22a.751.751 0 0 1-1.042-.018.751.751 0 0 1-.018-1.042L6.94 8 3.72 4.78a.75.75 0 0 1 0-1.06Z"></path>
  </symbol>
  <symbol id="arrow-left" viewBox="0 0 24 24">
    <path d="M10.78 19.03a.75.75 0 0 1-1.06 0l-6.25-6.25a.75.75 0 0 1 0-1.06l6.25-6.25a.749.749 0 0 1 1.275.326.749.749 0 0 1-.215.734L5.81 11.5h14.44a.75.75 0 0 1 0 1.5H5.81l4.97 4.97a.75.75 0 0 1 0 1.06Z"></path>
  </symbol>

  <symbol id="tag" viewBox="0 0 16 16">
    <path d="M1 7.775V2.75C1 1.784 1.784 1 2.75 1h5.025c.464 0 .91.184 1.238.513l6.25 6.25a1.75 1.75 0 0 1 0 2.474l-5.026 5.026a1.75 1.75 0 0 1-2.474 0l-6.25-6.25A1.752 1.752 0 0 1 1 7.775Zm1.5 0c0 .066.026.13.073.177l6.25 6.25a.25.25 0 0 0 .354 0l5.025-5.025a.25.25 0 0 0 0-.354l-6.25-6.25a.25.25 0 0 0-.177-.073H2.75a.25.25 0 0 0-.25.25ZM6 5a1 1 0 1 1 0 2 1 1 0 0 1 0-2Z"></path>
  </symbol>
  <symbol id="calendar" viewBox="0 0 16 16">
    <path d="M4.75 0a.75.75 0 0 1 .75.75V2h5V.75a.75.75 0 0 1 1.5 0V2h1.25c.966 0 1.75.784 1.75 1.75v10.5A1.75 1.75 0 0 1 13.25 16H2.75A1.75 1.75 0 0 1 1 14.25V3.75C1 2.784 1.784 2 2.75 2H4V.75A.75.75 0 0 1 4.75 0ZM2.5 7.5v6.75c0 .138.112.25.25.25h10.5a.25.25 0 0 0 .25-.25V7.5Zm10.75-4H2.75a.25.25 0 0 0-.25.25V6h11V3.75a.25.25 0 0 0-.25-.25Z"></path>
  </symbol>
  <symbol id="milestone" viewBox="0 0 16 16">
    <path d="M7.75 0a.75.75 0 0 1 .75.75V3h3.634c.414 0 .814.147 1.13.414l2.07 1.75a1.75 1.75 0 0 1 0 2.672l-2.07 1.75a1.75 1.75 0 0 1-1.13.414H8.5v5.25a.75.75 0 0 1-1.5 0V10H2.75A1.75 1.75 0 0 1 1 8.25v-3.5C1 3.784 1.784 3 2.75 3H7V.75A.75.75 0 0 1 7.75 0Zm4.384 8.5a.25.25 0 0 0 .161-.06l2.07-1.75a.248.248 0 0 0 0-.38l-2.07-1.75a.25.25 0 0 0-.161-.06H2.75a.25.25 0 0 0-.25.25v3.5c0 .138.112.25.25.25h9.384Z"></path>
  </symbol>
  <symbol id="arkolia-a" viewBox="0 0 16 16">
    <path d="M8.85 1.42 12.88 13.5h-1.62l-.98-3.03H5.72l-.97 3.03H3.12L7.15 1.42Zm1 7.78L8 3.44 6.15 9.2Z"></path>
  </symbol>
  <symbol id="cpu" viewBox="0 0 16 16">
    <path d="M6.5.75V2h3V.75a.75.75 0 0 1 1.5 0V2h1.25c.966 0 1.75.784 1.75 1.75V5h1.25a.75.75 0 0 1 0 1.5H14v3h1.25a.75.75 0 0 1 0 1.5H14v1.25A1.75 1.75 0 0 1 12.25 14H11v1.25a.75.75 0 0 1-1.5 0V14h-3v1.25a.75.75 0 0 1-1.5 0V14H3.75A1.75 1.75 0 0 1 2 12.25V11H.75a.75.75 0 0 1 0-1.5H2v-3H.75a.75.75 0 0 1 0-1.5H2V3.75C2 2.784 2.784 2 3.75 2H5V.75a.75.75 0 0 1 1.5 0Zm5.75 11.75a.25.25 0 0 0 .25-.25v-8.5a.25.25 0 0 0-.25-.25h-8.5a.25.25 0 0 0-.25.25v8.5c0 .138.112.25.25.25ZM5.75 5h4.5a.75.75 0 0 1 .75.75v4.5a.75.75 0 0 1-.75.75h-4.5a.75.75 0 0 1-.75-.75v-4.5A.75.75 0 0 1 5.75 5Zm.75 4.5h3v-3h-3Z"></path>
  </symbol>
</svg>
