<svg xmlns="http://www.w3.org/2000/svg">
  <symbol id="file" viewBox="0 0 16 16">
    <path d="M2 1.75C2 .784 2.784 0 3.75 0h6.586c.464 0 .909.184 1.237.513l2.914 2.914c.329.328.513.773.513 1.237v9.586A1.75 1.75 0 0 1 13.25 16h-9.5A1.75 1.75 0 0 1 2 14.25Zm1.75-.25a.25.25 0 0 0-.25.25v12.5c0 .138.112.25.25.25h9.5a.25.25 0 0 0 .25-.25V6h-2.75A1.75 1.75 0 0 1 9 4.25V1.5Zm6.75.062V4.25c0 .138.112.25.25.25h2.688l-.011-.013-2.914-2.914-.013-.011Z"></path>
  </symbol>

  <symbol id="file-directory" viewBox="0 0 16 16">
    <path d="M1.75 1A1.75 1.75 0 0 0 0 2.75v10.5C0 14.216.784 15 1.75 15h12.5A1.75 1.75 0 0 0 16 13.25v-8.5A1.75 1.75 0 0 0 14.25 3H7.5a.25.25 0 0 1-.2-.1l-.9-1.2C6.07 1.26 5.55 1 5 1H1.75Z"></path>
  </symbol>

  <symbol id="issue-opened" viewBox="0 0 16 16">
    <path d="M8 9.5a1.5 1.5 0 1 0 0-3 1.5 1.5 0 0 0 0 3Z"></path>
    <path d="M8 0a8 8 0 1 1 0 16A8 8 0 0 1 8 0ZM1.5 8a6.5 6.5 0 1 0 13 0 6.5 6.5 0 0 0-13 0Z"></path>
  </symbol>

  <symbol id="check-circle" viewBox="0 0 16 16">
    <path d="M0 8a8 8 0 1 1 16 0A8 8 0 0 1 0 8Zm1.5 0a6.5 6.5 0 1 0 13 0 6.5 6.5 0 0 0-13 0Zm10.28-1.72-4.5 4.5a.75.75 0 0 1-1.06 0l-2-2a.751.751 0 0 1 .018-1.042.751.751 0 0 1 1.042-.018l1.47 1.47 3.97-3.97a.751.751 0 0 1 1.042.018.751.751 0 0 1 .018 1.042Z"></path>
  </symbol>

  <symbol id="check-circle-fill" viewBox="0 0 16 16">
    <path d="M8 16A8 8 0 1 1 8 0a8 8 0 0 1 0 16Zm3.78-9.72a.751.751 0 0 0-.018-1.042.751.751 0 0 0-1.042-.018L6.75 9.19 5.28 7.72a.751.751 0 0 0-1.042.018.751.751 0 0 0-.018 1.042l2 2a.75.75 0 0 0 1.06 0Z"></path>
  </symbol>

  <symbol id="dot-fill-pending" viewBox="0 0 16 16">
    <path d="M8 4a4 4 0 1 1 0 8 4 4 0 0 1 0-8Z"></path>
  </symbol>

  <symbol id="stop-alert" viewBox="0 0 16 16">
    <path d="M4.47.22A.749.749 0 0 1 5 0h6c.199 0 .389.079.53.22l4.25 4.25c.141.14.22.331.22.53v6a.749.749 0 0 1-.22.53l-4.25 4.25A.749.749 0 0 1 11 16H5a.749.749 0 0 1-.53-.22L.22 11.53A.749.749 0 0 1 0 11V5c0-.199.079-.389.22-.53Zm.84 1.28L1.5 5.31v5.38l3.81 3.81h5.38l3.81-3.81V5.31L10.69 1.5ZM8 4a.75.75 0 0 1 .75.75v3.5a.75.75 0 0 1-1.5 0v-3.5A.75.75 0 0 1 8 4Zm0 8a1 1 0 1 1 0-2 1 1 0 0 1 0 2Z"></path>
  </symbol>
  
  <symbol id="issue-reopened" viewBox="0 0 16 16">
    <path d="M5.029 2.217a6.5 6.5 0 0 1 9.437 5.11.75.75 0 1 0 1.492-.154 8 8 0 0 0-14.315-4.03L.427 1.927A.25.25 0 0 0 0 2.104V5.75A.25.25 0 0 0 .25 6h3.646a.25.25 0 0 0 .177-.427L2.715 4.215a6.491 6.491 0 0 1 2.314-1.998ZM1.262 8.169a.75.75 0 0 0-1.22.658 8.001 8.001 0 0 0 14.315 4.03l1.216 1.216a.25.25 0 0 0 .427-.177V10.25a.25.25 0 0 0-.25-.25h-3.646a.25.25 0 0 0-.177.427l1.358 1.358a6.501 6.501 0 0 1-11.751-3.11.75.75 0 0 0-.272-.506Z"></path>
    <path d="M9.06 9.06a1.5 1.5 0 1 1-2.12-2.12 1.5 1.5 0 0 1 2.12 2.12Z"></path>
  </symbol>

  <symbol id="issue-tracks" viewBox="0 0 16 16">
    <path d="M1.5 8a6.5 6.5 0 0 1 13 0A.75.75 0 0 0 16 8a8 8 0 1 0-8 8 .75.75 0 0 0 0-1.5A6.5 6.5 0 0 1 1.5 8Z"></path>
    <path d="M8 9.5a1.5 1.5 0 1 0 0-3 1.5 1.5 0 0 0 0 3Zm1.5 1.75a.75.75 0 0 1 .75-.75h5a.75.75 0 0 1 0 1.5h-5a.75.75 0 0 1-.75-.75Zm2.75 2.25a.75.75 0 0 0 0 1.5h3a.75.75 0 0 0 0-1.5h-3Z"></path>
  </symbol>

  <symbol id="git-pull-request" viewBox="0 0 16 16">
    <path d="M1.5 3.25a2.25 2.25 0 1 1 3 2.122v5.256a2.251 2.251 0 1 1-1.5 0V5.372A2.25 2.25 0 0 1 1.5 3.25Zm5.677-.177L9.573.677A.25.25 0 0 1 10 .854V2.5h1A2.5 2.5 0 0 1 13.5 5v5.628a2.251 2.251 0 1 1-1.5 0V5a1 1 0 0 0-1-1h-1v1.646a.25.25 0 0 1-.427.177L7.177 3.427a.25.25 0 0 1 0-.354ZM3.75 2.5a.75.75 0 1 0 0 1.5.75.75 0 0 0 0-1.5Zm0 9.5a.75.75 0 1 0 0 1.5.75.75 0 0 0 0-1.5Zm8.25.75a.75.75 0 1 0 1.5 0 .75.75 0 0 0-1.5 0Z"></path>
  </symbol>

  <symbol id="comment-discussion" viewBox="0 0 16 16">
    <path d="M1.75 1h8.5c.966 0 1.75.784 1.75 1.75v5.5A1.75 1.75 0 0 1 10.25 10H7.061l-2.574 2.573A1.458 1.458 0 0 1 2 11.543V10h-.25A1.75 1.75 0 0 1 0 8.25v-5.5C0 1.784.784 1 1.75 1ZM1.5 2.75v5.5c0 .138.112.25.25.25h1a.75.75 0 0 1 .75.75v2.19l2.72-2.72a.749.749 0 0 1 .53-.22h3.5a.25.25 0 0 0 .25-.25v-5.5a.25.25 0 0 0-.25-.25h-8.5a.25.25 0 0 0-.25.25Zm13 2a.25.25 0 0 0-.25-.25h-.5a.75.75 0 0 1 0-1.5h.5c.966 0 1.75.784 1.75 1.75v5.5A1.75 1.75 0 0 1 14.25 12H14v1.543a1.458 1.458 0 0 1-2.487 1.03L9.22 12.28a.749.749 0 0 1 .326-1.275.749.749 0 0 1 .734.215l2.22 2.22v-2.19a.75.75 0 0 1 .75-.75h1a.25.25 0 0 0 .25-.25Z"></path>
  </symbol>

  <symbol id="comment" viewBox="0 0 16 16">
    <path d="M1.75 2A1.75 1.75 0 0 0 0 3.75v6.5C0 11.216.784 12 1.75 12H4.5l2.354 2.354a.75.75 0 0 0 1.28-.53V12h6.116A1.75 1.75 0 0 0 16 10.25v-6.5A1.75 1.75 0 0 0 14.25 2H1.75Z"></path>
  </symbol>

  <symbol id="play" viewBox="0 0 16 16">
    <path d="M8 0a8 8 0 1 1 0 16A8 8 0 0 1 8 0ZM1.5 8a6.5 6.5 0 1 0 13 0 6.5 6.5 0 0 0-13 0Zm4.879-2.773 4.264 2.559a.25.25 0 0 1 0 .428l-4.264 2.559A.25.25 0 0 1 6 10.559V5.442a.25.25 0 0 1 .379-.215Z"></path>
  </symbol>

  <symbol id="table" viewBox="0 0 16 16">
    <path d="M0 1.75C0 .784.784 0 1.75 0h12.5C15.216 0 16 .784 16 1.75v12.5A1.75 1.75 0 0 1 14.25 16H1.75A1.75 1.75 0 0 1 0 14.25ZM6.5 6.5v8h7.75a.25.25 0 0 0 .25-.25V6.5Zm8-1.5V1.75a.25.25 0 0 0-.25-.25H6.5V5Zm-13 1.5v7.75c0 .138.112.25.25.25H5v-8ZM5 5V1.5H1.75a.25.25 0 0 0-.25.25V5Z"></path>
  </symbol>

  <symbol id="book" viewBox="0 0 16 16">
    <path d="M0 1.75A.75.75 0 0 1 .75 1h4.253c1.227 0 2.317.59 3 1.501A3.743 3.743 0 0 1 11.006 1h4.245a.75.75 0 0 1 .75.75v10.5a.75.75 0 0 1-.75.75h-4.507a2.25 2.25 0 0 0-1.591.659l-.622.621a.75.75 0 0 1-1.06 0l-.622-.621A2.25 2.25 0 0 0 5.258 13H.75a.75.75 0 0 1-.75-.75Zm7.251 10.324.004-5.073-.002-2.253A2.25 2.25 0 0 0 5.003 2.5H1.5v9h3.757a3.75 3.75 0 0 1 1.994.574ZM8.755 4.75l-.004 7.322a3.752 3.752 0 0 1 1.992-.572H14.5v-9h-3.495a2.25 2.25 0 0 0-2.25 2.25Z"></path>
  </symbol>

  <symbol id="shield" viewBox="0 0 16 16">
    <path d="M7.467.133a1.748 1.748 0 0 1 1.066 0l5.25 1.68A1.75 1.75 0 0 1 15 3.48V7c0 1.566-.32 3.182-1.303 4.682-.983 1.498-2.585 2.813-5.032 3.855a1.697 1.697 0 0 1-1.33 0c-2.447-1.042-4.049-2.357-5.032-3.855C1.32 10.182 1 8.566 1 7V3.48a1.75 1.75 0 0 1 1.217-1.667Zm.61 1.429a.25.25 0 0 0-.153 0l-5.25 1.68a.25.25 0 0 0-.174.238V7c0 1.358.275 2.666 1.057 3.86.784 1.194 2.121 2.34 4.366 3.297a.196.196 0 0 0 .154 0c2.245-.956 3.582-2.104 4.366-3.298C13.225 9.666 13.5 8.36 13.5 7V3.48a.251.251 0 0 0-.174-.237l-5.25-1.68ZM8.75 4.75v3a.75.75 0 0 1-1.5 0v-3a.75.75 0 0 1 1.5 0ZM9 10.5a1 1 0 1 1-2 0 1 1 0 0 1 2 0Z"></path>
  </symbol>

  <symbol id="graph" viewBox="0 0 16 16">
    <path d="M1.5 1.75V13.5h13.75a.75.75 0 0 1 0 1.5H.75a.75.75 0 0 1-.75-.75V1.75a.75.75 0 0 1 1.5 0Zm14.28 2.53-5.25 5.25a.75.75 0 0 1-1.06 0L7 7.06 4.28 9.78a.751.751 0 0 1-1.042-.018.751.751 0 0 1-.018-1.042l3.25-3.25a.75.75 0 0 1 1.06 0L10 7.94l4.72-4.72a.751.751 0 0 1 1.042.018.751.751 0 0 1 .018 1.042Z"></path>
  </symbol>

  <symbol id="gear" viewBox="0 0 16 16">
    <path d="M8 0a8.2 8.2 0 0 1 .701.031C9.444.095 9.99.645 10.16 1.29l.288 1.107c.018.066.079.158.212.224.231.114.454.243.668.386.123.082.233.09.299.071l1.103-.303c.644-.176 1.392.021 1.82.63.27.385.506.792.704 1.218.315.675.111 1.422-.364 1.891l-.814.806c-.049.048-.098.147-.088.294.016.257.016.515 0 .772-.01.147.038.246.088.294l.814.806c.475.469.679 1.216.364 1.891a7.977 7.977 0 0 1-.704 1.217c-.428.61-1.176.807-1.82.63l-1.102-.302c-.067-.019-.177-.011-.3.071a5.909 5.909 0 0 1-.668.386c-.133.066-.194.158-.211.224l-.29 1.106c-.168.646-.715 1.196-1.458 1.26a8.006 8.006 0 0 1-1.402 0c-.743-.064-1.289-.614-1.458-1.26l-.289-1.106c-.018-.066-.079-.158-.212-.224a5.738 5.738 0 0 1-.668-.386c-.123-.082-.233-.09-.299-.071l-1.103.303c-.644.176-1.392-.021-1.82-.63a8.12 8.12 0 0 1-.704-1.218c-.315-.675-.111-1.422.363-1.891l.815-.806c.05-.048.098-.147.088-.294a6.214 6.214 0 0 1 0-.772c.01-.147-.038-.246-.088-.294l-.815-.806C.635 6.045.431 5.298.746 4.623a7.92 7.92 0 0 1 .704-1.217c.428-.61 1.176-.807 1.82-.63l1.102.302c.067.019.177.011.3-.071.214-.143.437-.272.668-.386.133-.066.194-.158.211-.224l.29-1.106C6.009.645 6.556.095 7.299.03 7.53.01 7.764 0 8 0Zm-.571 1.525c-.036.003-.108.036-.137.146l-.289 1.105c-.147.561-.549.967-.998 1.189-.173.086-.34.183-.5.29-.417.278-.97.423-1.529.27l-1.103-.303c-.109-.03-.175.016-.195.045-.22.312-.412.644-.573.99-.014.031-.021.11.059.19l.815.806c.411.406.562.957.53 1.456a4.709 4.709 0 0 0 0 .582c.032.499-.119 1.05-.53 1.456l-.815.806c-.081.08-.073.159-.059.19.162.346.353.677.573.989.02.03.085.076.195.046l1.102-.303c.56-.153 1.113-.008 1.53.27.161.107.328.204.501.29.447.222.85.629.997 1.189l.289 1.105c.029.109.101.143.137.146a6.6 6.6 0 0 0 1.142 0c.036-.003.108-.036.137-.146l.289-1.105c.147-.561.549-.967.998-1.189.173-.086.34-.183.5-.29.417-.278.97-.423 1.529-.27l1.103.303c.109.029.175-.016.195-.045.22-.313.411-.644.573-.99.014-.031.021-.11-.059-.19l-.815-.806c-.411-.406-.562-.957-.53-1.456a4.709 4.709 0 0 0 0-.582c-.032-.499.119-1.05.53-1.456l.815-.806c.081-.08.073-.159.059-.19a6.464 6.464 0 0 0-.573-.989c-.02-.03-.085-.076-.195-.046l-1.102.303c-.56.153-1.113.008-1.53-.27a4.44 4.44 0 0 0-.501-.29c-.447-.222-.85-.629-.997-1.189l-.289-1.105c-.029-.11-.101-.143-.137-.146a6.6 6.6 0 0 0-1.142 0ZM11 8a3 3 0 1 1-6 0 3 3 0 0 1 6 0ZM9.5 8a1.5 1.5 0 1 0-3.001.001A1.5 1.5 0 0 0 9.5 8Z"></path>
  </symbol>

  <symbol id="three-bars" viewBox="0 0 16 16">
    <path d="M1 2.75A.75.75 0 0 1 1.75 2h12.5a.75.75 0 0 1 0 1.5H1.75A.75.75 0 0 1 1 2.75Zm0 5A.75.75 0 0 1 1.75 7h12.5a.75.75 0 0 1 0 1.5H1.75A.75.75 0 0 1 1 7.75ZM1.75 12h12.5a.75.75 0 0 1 0 1.5H1.75a.75.75 0 0 1 0-1.5Z"></path>
  </symbol>

  <symbol id="x" viewBox="0 0 16 16">
    <path d="M3.72 3.72a.75.75 0 0 1 1.06 0L8 6.94l3.22-3.22a.75.75 0 1 1 1.06 1.06L9.06 8l3.22 3.22a.75.75 0 1 1-1.06 1.06L8 9.06l-3.22 3.22a.75.75 0 0 1-1.06-1.06L6.94 8 3.72 4.78a.75.75 0 0 1 0-1.06Z"></path>
  </symbol>

  <symbol id="search" viewBox="0 0 16 16">
    <path d="M10.68 11.74a6 6 0 0 1-7.922-8.982 6 6 0 0 1 8.982 7.922l3.04 3.04a.749.749 0 0 1-.326 1.275.749.749 0 0 1-.734-.215ZM11.5 7a4.499 4.499 0 1 0-8.997 0A4.499 4.499 0 0 0 11.5 7Z"></path>
  </symbol>

  <symbol id="git-commit" viewBox="0 0 16 16">
    <path d="M11.93 8.5a4.002 4.002 0 0 1-7.86 0H.75a.75.75 0 0 1 0-1.5h3.32a4.002 4.002 0 0 1 7.86 0h3.32a.75.75 0 0 1 0 1.5Zm-1.43-.75a2.5 2.5 0 1 0-5 0 2.5 2.5 0 0 0 5 0Z"></path>
  </symbol>

  <symbol id="people" viewBox="0 0 16 16">
    <path d="M2 5.5a3.5 3.5 0 1 1 5.898 2.549 5.508 5.508 0 0 1 3.034 4.084.75.75 0 1 1-1.482.235 4 4 0 0 0-7.9 0 .75.75 0 0 1-1.482-.236A5.507 5.507 0 0 1 3.102 8.05 3.493 3.493 0 0 1 2 5.5ZM11 4a3.001 3.001 0 0 1 2.22 5.018 5.01 5.01 0 0 1 2.56 3.012.749.749 0 0 1-.885.954.752.752 0 0 1-.549-.514 3.507 3.507 0 0 0-2.522-2.372.75.75 0 0 1-.574-.73v-.352a.75.75 0 0 1 .416-.672A1.5 1.5 0 0 0 11 5.5.75.75 0 0 1 11 4Zm-5.5-.5a2 2 0 1 0-.001 3.999A2 2 0 0 0 5.5 3.5Z"></path>
  </symbol>

  <symbol id="pin" viewBox="0 0 16 16">
    <path d="M7.75 0a4.75 4.75 0 0 1 4.75 4.75c0 3.124-3.266 6.717-4.148 7.63a.5.5 0 0 1-.704 0C6.766 11.467 3.5 7.874 3.5 4.75A4.25 4.25 0 0 1 7.75 0Zm0 6.5a1.75 1.75 0 1 0 0-3.5 1.75 1.75 0 0 0 0 3.5Z"></path>
    <path d="M7.75 15.5a.75.75 0 0 1-.75-.75v-1.3a.75.75 0 0 1 1.5 0v1.3a.75.75 0 0 1-.75.75Z"></path>
  </symbol>

  <symbol id="checklist" viewBox="0 0 16 16">
    <path d="M3.75 2a.75.75 0 0 1 .75.75V3h7.75a.75.75 0 0 1 0 1.5H4.5v.25a.75.75 0 0 1-1.5 0v-2A.75.75 0 0 1 3.75 2Zm0 4.5a.75.75 0 0 1 .75.75v.25h7.75a.75.75 0 0 1 0 1.5H4.5v.25a.75.75 0 0 1-1.5 0v-2a.75.75 0 0 1 .75-.75Zm0 4.5a.75.75 0 0 1 .75.75V12h7.75a.75.75 0 0 1 0 1.5H4.5v.25a.75.75 0 0 1-1.5 0v-2a.75.75 0 0 1 .75-.75Z"></path>
  </symbol>

  <symbol id="avatar-human" viewBox="0 0 24 24">
    <path d="M12 12a5 5 0 1 0-5-5 5 5 0 0 0 5 5Zm0 2c-5.06 0-9 2.39-9 5.25V22h18v-2.75C21 16.39 17.06 14 12 14Z"></path>
  </symbol>

  <symbol id="arrow-up" viewBox="0 0 16 16">
    <path d="M8.53 1.22a.75.75 0 0 0-1.06 0L3.22 5.47a.75.75 0 0 0 1.06 1.06L7.25 3.56V14a.75.75 0 0 0 1.5 0V3.56l2.97 2.97a.75.75 0 1 0 1.06-1.06L8.53 1.22Z"></path>
  </symbol>

  <symbol id="chevron-down" viewBox="0 0 16 16">
    <path d="M4 6l4 4 4-4" fill="none" stroke="currentColor" stroke-width="1.5" stroke-linecap="round" stroke-linejoin="round"></path>
  </symbol>

    <symbol id="pencil" viewBox="0 0 16 16">
    <path d="M11.013 1.427a1.75 1.75 0 0 1 2.474 2.474L6.12 11.268a1.75 1.75 0 0 1-.81.453l-2.59.647a.75.75 0 0 1-.91-.91l.647-2.59c.08-.32.245-.61.453-.81l7.366-7.366Zm1.414 1.06a.25.25 0 0 0-.354 0l-.72.72 1.414 1.414.72-.72a.25.25 0 0 0 0-.354l-1.06-1.06ZM11.353 5.68 9.94 4.267 4.133 10.073a.25.25 0 0 0-.065.116l-.36 1.438 1.438-.36a.25.25 0 0 0 .116-.065l6.09-5.52Z"></path>
  </symbol>

  <symbol id="check" viewBox="0 0 16 16">
    <path d="M13.78 3.97a.75.75 0 0 1 0 1.06L6.81 12 2.22 7.41a.75.75 0 1 1 1.06-1.06l3.53 3.53 5.91-5.91a.75.75 0 0 1 1.06 0Z"></path>
  </symbol>

    <symbol id="discussion-closed" viewBox="0 0 16 16">
    <path d="M0 2.75C0 1.783.784 1 1.75 1h8.5c.967 0 1.75.783 1.75 1.75v5.5A1.75 1.75 0 0 1 10.25 10H7.061l-2.574 2.573A1.457 1.457 0 0 1 2 11.543V10h-.25A1.75 1.75 0 0 1 0 8.25Zm1.75-.25a.25.25 0 0 0-.25.25v5.5c0 .138.112.25.25.25h1a.75.75 0 0 1 .75.75v2.189L6.22 8.72a.747.747 0 0 1 .53-.22h3.5a.25.25 0 0 0 .25-.25v-5.5a.25.25 0 0 0-.25-.25Zm12.5 2h-.5a.75.75 0 0 1 0-1.5h.5c.967 0 1.75.783 1.75 1.75v5.5A1.75 1.75 0 0 1 14.25 12H14v1.543a1.457 1.457 0 0 1-2.487 1.03L9.22 12.28a.749.749 0 1 1 1.06-1.06l2.22 2.219V11.25a.75.75 0 0 1 .75-.75h1a.25.25 0 0 0 .25-.25v-5.5a.25.25 0 0 0-.25-.25Zm-5.47.28-3 3a.747.747 0 0 1-1.06 0l-1.5-1.5a.749.749 0 1 1 1.06-1.06l.97.969L7.72 3.72a.749.749 0 1 1 1.06 1.06Z"></path>
  </symbol>

  <symbol id="discussion-outdated" viewBox="0 0 16 16">
    <path d="M0 2.75C0 1.783.784 1 1.75 1h8.5c.967 0 1.75.783 1.75 1.75v5.5A1.75 1.75 0 0 1 10.25 10H7.061l-2.574 2.573A1.457 1.457 0 0 1 2 11.543V10h-.25A1.75 1.75 0 0 1 0 8.25Zm1.75-.25a.25.25 0 0 0-.25.25v5.5c0 .138.112.25.25.25h1a.75.75 0 0 1 .75.75v2.189L6.22 8.72a.747.747 0 0 1 .53-.22h3.5a.25.25 0 0 0 .25-.25v-5.5a.25.25 0 0 0-.25-.25Zm12.5 2h-.5a.75.75 0 0 1 0-1.5h.5c.967 0 1.75.783 1.75 1.75v5.5A1.75 1.75 0 0 1 14.25 12H14v1.543a1.457 1.457 0 0 1-2.487 1.03L9.22 12.28a.749.749 0 1 1 1.06-1.06l2.22 2.219V11.25a.75.75 0 0 1 .75-.75h1a.25.25 0 0 0 .25-.25v-5.5a.25.25 0 0 0-.25-.25ZM6.5 4v1.492l.466.187.036.015.812.375a.75.75 0 1 1-.628 1.362l-.795-.367-.92-.368A.75.75 0 0 1 5 6V4a.75.75 0 0 1 1.5 0Z"></path>
  </symbol>

  <symbol id="discussion-duplicate" viewBox="0 0 16 16">
    <path d="M0 2.75C0 1.783.784 1 1.75 1h8.5c.967 0 1.75.783 1.75 1.75v5.5A1.75 1.75 0 0 1 10.25 10H7.061l-2.574 2.573A1.457 1.457 0 0 1 2 11.543V10h-.25A1.75 1.75 0 0 1 0 8.25Zm1.75-.25a.25.25 0 0 0-.25.25v5.5c0 .138.112.25.25.25h1a.75.75 0 0 1 .75.75v2.189L6.22 8.72a.747.747 0 0 1 .53-.22h3.5a.25.25 0 0 0 .25-.25v-5.5a.25.25 0 0 0-.25-.25Zm12.5 2h-.5a.75.75 0 0 1 0-1.5h.5c.967 0 1.75.783 1.75 1.75v5.5A1.75 1.75 0 0 1 14.25 12H14v1.543a1.457 1.457 0 0 1-2.487 1.03L9.22 12.28a.749.749 0 1 1 1.06-1.06l2.22 2.219V11.25a.75.75 0 0 1 .75-.75h1a.25.25 0 0 0 .25-.25v-5.5a.25.25 0 0 0-.25-.25Zm-6.282.03L5.03 7.468a.749.749 0 1 1-1.06-1.061L6.907 3.47a.75.75 0 0 1 1.061 1.06Z"></path>
  </symbol>

  <symbol id="mail" viewBox="0 0 24 24">
    <path d="M1.75 3h20.5c.966 0 1.75.784 1.75 1.75v14a1.75 1.75 0 0 1-1.75 1.75H1.75A1.75 1.75 0 0 1 0 18.75v-14C0 3.784.784 3 1.75 3ZM1.5 7.412V18.75c0 .138.112.25.25.25h20.5a.25.25 0 0 0 .25-.25V7.412l-9.52 6.433c-.592.4-1.368.4-1.96 0Zm0-2.662v.852l10.36 7a.25.25 0 0 0 .28 0l10.36-7V4.75a.25.25 0 0 0-.25-.25H1.75a.25.25 0 0 0-.25.25Z"></path>
  </symbol>
</svg>
